<svg width="437" height="250" viewBox="0 0 437 250" fill="none" xmlns="http://www.w3.org/2000/svg">
<path d="M2 10.3798C2 10.3798 9.38991 17.6972 15.3441 18.8263C25.2018 20.6956 28.4913 6.8557 38.5 7.00114C48.2327 7.14256 51.2277 20.2495 60.871 18.8263C67.1245 17.9034 75 10.3798 75 10.3798" stroke="#545465" stroke-width="3" stroke-linecap="round" stroke-linejoin="round"/>
<path d="M2 24.0981C2 24.0981 9.38991 30.8058 15.3441 31.8408C25.2018 33.5543 28.4913 20.8677 38.5 21.001C48.2327 21.1307 51.2277 33.1454 60.871 31.8408C67.1245 30.9948 75 24.0981 75 24.0981" stroke="#545465" stroke-width="3" stroke-linecap="round" stroke-linejoin="round"/>
<path d="M2 37.3798C2 37.3798 9.38991 44.6972 15.3441 45.8263C25.2018 47.6956 28.4913 33.8557 38.5 34.0011C48.2327 34.1426 51.2277 47.2495 60.871 45.8263C67.1245 44.9034 75 37.3798 75 37.3798" stroke="#545465" stroke-width="3" stroke-linecap="round" stroke-linejoin="round"/>
<circle cx="436.5" cy="91.5" r="76.5" fill="white" stroke="#47D182" stroke-width="30"/>
<rect x="132" y="219.138" width="76.3956" height="16.4034" rx="8.20172" transform="rotate(-23.7409 132 219.138)" fill="#47D182"/>
<rect x="162.396" y="173" width="76.3956" height="16.4034" rx="8.20172" transform="rotate(66.2591 162.396 173)" fill="#47D182"/>
</svg>
