<svg width="808" height="485" viewBox="0 0 808 485" fill="none" xmlns="http://www.w3.org/2000/svg">
<g filter="url(#filter0_d_980_2338)">
<g clip-path="url(#clip0_980_2338)">
<rect x="7" y="5" width="235.271" height="469.97" rx="22.8418" fill="white"/>
<rect x="16.1367" y="5" width="45.6836" height="469.97" fill="#FF0000" fill-opacity="0.1"/>
<rect x="73.2422" y="5" width="45.6836" height="469.97" fill="#FF0000" fill-opacity="0.1"/>
<rect x="130.346" y="5" width="45.6836" height="469.97" fill="#FF0000" fill-opacity="0.1"/>
<rect x="187.451" y="5" width="45.6836" height="469.97" fill="#FF0000" fill-opacity="0.1"/>
<path d="M81.7263 233.642V232.172L85.9726 226.456H87.8696V232.11H89.0254V233.642H87.8696V235.426H86.0856V233.642H81.7263ZM86.2238 228.529L83.5354 232.11H86.2238V228.529ZM89.5825 228.215V226.557H92.7735V235.426H90.9142V228.215H89.5825ZM94.0433 234.032C96.8826 232.064 98.3022 230.43 98.3022 229.132C98.3022 228.739 98.2059 228.429 98.0132 228.203C97.829 227.976 97.5358 227.863 97.1338 227.863C96.3047 227.863 95.865 228.429 95.8147 229.559H94.0936C94.1438 228.512 94.4621 227.721 95.0484 227.185C95.6346 226.641 96.3758 226.368 97.272 226.368C98.1849 226.368 98.8843 226.607 99.37 227.084C99.8642 227.553 100.111 228.182 100.111 228.969C100.111 229.589 99.927 230.213 99.5585 230.841C99.1983 231.461 98.7377 232.034 98.1765 232.562C97.6154 233.081 97.0249 233.529 96.4052 233.906H100.287V235.351H94.0433V234.032ZM105.657 228.378C106.243 228.378 106.771 228.521 107.24 228.806C107.709 229.09 108.073 229.505 108.333 230.049C108.601 230.585 108.735 231.218 108.735 231.946C108.735 232.675 108.601 233.311 108.333 233.856C108.073 234.392 107.709 234.802 107.24 235.087C106.771 235.372 106.243 235.514 105.657 235.514C105.07 235.514 104.568 235.376 104.149 235.1C103.739 234.815 103.446 234.438 103.27 233.969V238.743H101.498V228.466H103.27V229.911C103.446 229.442 103.739 229.069 104.149 228.793C104.568 228.517 105.07 228.378 105.657 228.378ZM105.104 229.924C104.568 229.924 104.124 230.108 103.772 230.476C103.429 230.837 103.257 231.327 103.257 231.946C103.257 232.558 103.429 233.048 103.772 233.416C104.124 233.776 104.568 233.956 105.104 233.956C105.657 233.956 106.101 233.781 106.436 233.429C106.771 233.069 106.938 232.574 106.938 231.946C106.938 231.318 106.771 230.824 106.436 230.464C106.101 230.104 105.657 229.924 105.104 229.924ZM114.222 235.426L112.639 233.19L111.307 235.426H109.36L111.659 231.796L109.31 228.466H111.295L112.84 230.665L114.172 228.466H116.119L113.782 231.997L116.207 235.426H114.222ZM124.086 235.426L122.503 233.19L121.171 235.426H119.224L121.523 231.796L119.174 228.466H121.159L122.704 230.665L124.036 228.466H125.983L123.646 231.997L126.071 235.426H124.086ZM129.766 228.579C129.766 228.152 129.883 227.754 130.118 227.386C130.361 227.017 130.717 226.72 131.186 226.494C131.663 226.268 132.237 226.155 132.907 226.155C133.577 226.155 134.146 226.268 134.616 226.494C135.093 226.72 135.449 227.017 135.683 227.386C135.926 227.754 136.048 228.152 136.048 228.579C136.048 229.065 135.93 229.48 135.696 229.823C135.461 230.158 135.11 230.409 134.641 230.577C135.168 230.778 135.57 231.071 135.847 231.456C136.131 231.833 136.274 232.294 136.274 232.838C136.274 233.425 136.127 233.931 135.834 234.358C135.541 234.777 135.139 235.095 134.628 235.313C134.126 235.531 133.552 235.64 132.907 235.64C132.262 235.64 131.684 235.531 131.173 235.313C130.671 235.095 130.273 234.777 129.98 234.358C129.695 233.931 129.553 233.425 129.553 232.838C129.553 232.294 129.691 231.833 129.967 231.456C130.252 231.071 130.658 230.778 131.186 230.577C130.717 230.409 130.361 230.154 130.118 229.811C129.883 229.467 129.766 229.057 129.766 228.579ZM131.512 228.868C131.512 229.27 131.638 229.58 131.889 229.798C132.141 230.016 132.48 230.125 132.907 230.125C133.342 230.125 133.686 230.016 133.937 229.798C134.188 229.58 134.314 229.27 134.314 228.868C134.314 228.466 134.184 228.156 133.925 227.939C133.673 227.713 133.334 227.6 132.907 227.6C132.488 227.6 132.149 227.713 131.889 227.939C131.638 228.156 131.512 228.466 131.512 228.868ZM131.274 232.738C131.274 233.182 131.42 233.533 131.713 233.793C132.007 234.053 132.404 234.183 132.907 234.183C133.409 234.183 133.807 234.053 134.1 233.793C134.402 233.533 134.553 233.182 134.553 232.738C134.553 232.286 134.398 231.942 134.088 231.708C133.786 231.465 133.393 231.343 132.907 231.343C132.43 231.343 132.036 231.465 131.726 231.708C131.425 231.942 131.274 232.286 131.274 232.738ZM137.376 234.032C140.215 232.064 141.635 230.43 141.635 229.132C141.635 228.739 141.538 228.429 141.346 228.203C141.161 227.976 140.868 227.863 140.466 227.863C139.637 227.863 139.197 228.429 139.147 229.559H137.426C137.476 228.512 137.795 227.721 138.381 227.185C138.967 226.641 139.708 226.368 140.605 226.368C141.517 226.368 142.217 226.607 142.703 227.084C143.197 227.553 143.444 228.182 143.444 228.969C143.444 229.589 143.26 230.213 142.891 230.841C142.531 231.461 142.07 232.034 141.509 232.562C140.948 233.081 140.357 233.529 139.738 233.906H143.62V235.351H137.376V234.032ZM147.808 226.218C148.411 226.218 148.926 226.322 149.353 226.532C149.789 226.741 150.116 227.03 150.333 227.399C150.56 227.767 150.673 228.177 150.673 228.63C150.673 229.199 150.518 229.668 150.208 230.037C149.898 230.397 149.487 230.619 148.977 230.703V230.765C150.216 231.134 150.836 231.863 150.836 232.951C150.836 233.714 150.58 234.333 150.07 234.811C149.559 235.28 148.838 235.514 147.909 235.514C146.92 235.514 146.133 235.271 145.547 234.786C144.961 234.291 144.634 233.55 144.567 232.562H146.301C146.343 233.014 146.489 233.374 146.74 233.642C147 233.902 147.364 234.032 147.833 234.032C148.235 234.032 148.549 233.923 148.776 233.705C149.002 233.479 149.115 233.186 149.115 232.826C149.115 232.399 148.951 232.072 148.625 231.846C148.298 231.62 147.817 231.507 147.18 231.507H146.816V230.062H147.18C148.353 230.079 148.939 229.672 148.939 228.843C148.939 228.483 148.834 228.203 148.625 228.002C148.415 227.792 148.131 227.687 147.771 227.687C147.394 227.687 147.084 227.809 146.841 228.052C146.598 228.286 146.46 228.617 146.426 229.044H144.693C144.743 228.14 145.036 227.445 145.572 226.959C146.108 226.465 146.853 226.218 147.808 226.218ZM156.51 228.378C157.096 228.378 157.624 228.521 158.093 228.806C158.562 229.09 158.926 229.505 159.186 230.049C159.454 230.585 159.588 231.218 159.588 231.946C159.588 232.675 159.454 233.311 159.186 233.856C158.926 234.392 158.562 234.802 158.093 235.087C157.624 235.372 157.096 235.514 156.51 235.514C155.923 235.514 155.421 235.376 155.002 235.1C154.592 234.815 154.299 234.438 154.123 233.969V238.743H152.351V228.466H154.123V229.911C154.299 229.442 154.592 229.069 155.002 228.793C155.421 228.517 155.923 228.378 156.51 228.378ZM155.957 229.924C155.421 229.924 154.977 230.108 154.625 230.476C154.282 230.837 154.11 231.327 154.11 231.946C154.11 232.558 154.282 233.048 154.625 233.416C154.977 233.776 155.421 233.956 155.957 233.956C156.51 233.956 156.954 233.781 157.289 233.429C157.624 233.069 157.791 232.574 157.791 231.946C157.791 231.318 157.624 230.824 157.289 230.464C156.954 230.104 156.51 229.924 155.957 229.924ZM165.075 235.426L163.492 233.19L162.16 235.426H160.213L162.512 231.796L160.163 228.466H162.148L163.693 230.665L165.025 228.466H166.972L164.635 231.997L167.06 235.426H165.075Z" fill="#212E44"/>
<line x1="174.316" y1="230.563" x2="233.134" y2="230.563" stroke="#FF8880" stroke-width="1.14209"/>
<line x1="16.1367" y1="230.563" x2="74.9544" y2="230.563" stroke="#FF8880" stroke-width="1.14209"/>
<line x1="61.8203" y1="54.1101" x2="73.2412" y2="54.1101" stroke="#FF8880" stroke-width="1.14209"/>
<path d="M52.5762 41.5894C55.4154 39.6212 56.835 37.988 56.835 36.6898C56.835 36.2962 56.7387 35.9863 56.5461 35.7602C56.3618 35.534 56.0687 35.421 55.6667 35.421C54.8375 35.421 54.3978 35.9863 54.3475 37.117H52.6264C52.6767 36.0701 52.9949 35.2786 53.5812 34.7426C54.1675 34.1982 54.9087 33.926 55.8048 33.926C56.7178 33.926 57.4171 34.1647 57.9029 34.6421C58.397 35.1111 58.6441 35.7392 58.6441 36.5265C58.6441 37.1463 58.4598 37.7702 58.0913 38.3984C57.7312 39.0182 57.2705 39.5919 56.7094 40.1195C56.1482 40.6388 55.5578 41.0869 54.938 41.4638H58.82V42.9085H52.5762V41.5894ZM59.8175 38.4738C59.8175 41.4805 60.9482 42.9839 63.2096 42.9839C64.4072 42.9839 65.2699 42.5819 65.7975 41.7778C66.3252 40.9738 66.589 39.8725 66.589 38.4738C66.589 37.0835 66.3252 35.9863 65.7975 35.1823C65.2699 34.3782 64.4072 33.9762 63.2096 33.9762C60.9482 33.9762 59.8175 35.4754 59.8175 38.4738ZM64.8427 38.4738C64.8427 39.3867 64.7297 40.0902 64.5035 40.5844C64.2858 41.0701 63.8545 41.313 63.2096 41.313C62.5563 41.313 62.1166 41.0701 61.8904 40.5844C61.6727 40.0902 61.5638 39.3867 61.5638 38.4738C61.5638 37.5692 61.6727 36.8741 61.8904 36.3883C62.1166 35.8942 62.5563 35.6471 63.2096 35.6471C63.8545 35.6471 64.2858 35.8942 64.5035 36.3883C64.7297 36.8741 64.8427 37.5692 64.8427 38.4738ZM72.1272 35.936C72.7135 35.936 73.2411 36.0784 73.7102 36.3632C74.1792 36.6479 74.5435 37.0625 74.8031 37.6069C75.0712 38.1429 75.2052 38.7753 75.2052 39.5039C75.2052 40.2326 75.0712 40.8691 74.8031 41.4135C74.5435 41.9495 74.1792 42.3599 73.7102 42.6447C73.2411 42.9294 72.7135 43.0718 72.1272 43.0718C71.5409 43.0718 71.0384 42.9336 70.6197 42.6572C70.2093 42.3725 69.9161 41.9956 69.7403 41.5266V46.3005H67.9689V36.024H69.7403V37.4687C69.9161 36.9997 70.2093 36.627 70.6197 36.3506C71.0384 36.0742 71.5409 35.936 72.1272 35.936ZM71.5745 37.4813C71.0384 37.4813 70.5945 37.6656 70.2428 38.0341C69.8994 38.3942 69.7277 38.8842 69.7277 39.5039C69.7277 40.1153 69.8994 40.6053 70.2428 40.9738C70.5945 41.3339 71.0384 41.514 71.5745 41.514C72.1272 41.514 72.5711 41.3381 72.9061 40.9864C73.2411 40.6262 73.4086 40.1321 73.4086 39.5039C73.4086 38.8758 73.2411 38.3816 72.9061 38.0215C72.5711 37.6614 72.1272 37.4813 71.5745 37.4813ZM80.6924 42.9839L79.1095 40.7477L77.7778 42.9839H75.8306L78.1296 39.3532L75.7803 36.024H77.7653L79.3105 38.2225L80.6422 36.024H82.5894L80.2527 39.5542L82.6774 42.9839H80.6924Z" fill="#212E44"/>
<line x1="125.206" y1="29.5547" x2="125.206" y2="212.289" stroke="#FF8880" stroke-width="1.14209"/>
<line x1="125.206" y1="249.407" x2="125.206" y2="432.142" stroke="#FF8880" stroke-width="1.14209"/>
<rect x="16.1367" y="73.5254" width="4.56836" height="4.56836" fill="#FF0000" fill-opacity="0.2"/>
<rect x="16.2795" y="73.6682" width="4.28284" height="4.28284" stroke="#B90F00" stroke-opacity="0.2" stroke-width="0.285523"/>
<rect x="16.1367" y="78.0938" width="4.56836" height="4.56836" fill="#FF0000" fill-opacity="0.2"/>
<rect x="16.2795" y="78.2365" width="4.28284" height="4.28284" stroke="#B90F00" stroke-opacity="0.2" stroke-width="0.285523"/>
<rect x="16.1367" y="82.6621" width="4.56836" height="4.56836" fill="#FF0000" fill-opacity="0.2"/>
<rect x="16.2795" y="82.8049" width="4.28284" height="4.28284" stroke="#B90F00" stroke-opacity="0.2" stroke-width="0.285523"/>
<rect x="16.1367" y="87.2305" width="4.56836" height="4.56836" fill="#FF0000" fill-opacity="0.2"/>
<rect x="16.2795" y="87.3732" width="4.28284" height="4.28284" stroke="#B90F00" stroke-opacity="0.2" stroke-width="0.285523"/>
<rect x="16.1367" y="91.7988" width="4.56836" height="4.56836" fill="#FF0000" fill-opacity="0.2"/>
<rect x="16.2795" y="91.9416" width="4.28284" height="4.28284" stroke="#B90F00" stroke-opacity="0.2" stroke-width="0.285523"/>
<rect x="16.1367" y="96.3672" width="4.56836" height="4.56836" fill="#FF0000" fill-opacity="0.2"/>
<rect x="16.2795" y="96.5099" width="4.28284" height="4.28284" stroke="#B90F00" stroke-opacity="0.2" stroke-width="0.285523"/>
<rect x="16.1367" y="100.936" width="4.56836" height="4.56836" fill="#FF0000" fill-opacity="0.2"/>
<rect x="16.2795" y="101.078" width="4.28284" height="4.28284" stroke="#B90F00" stroke-opacity="0.2" stroke-width="0.285523"/>
<rect x="16.1367" y="105.504" width="4.56836" height="4.56836" fill="#FF0000" fill-opacity="0.2"/>
<rect x="16.2795" y="105.647" width="4.28284" height="4.28284" stroke="#B90F00" stroke-opacity="0.2" stroke-width="0.285523"/>
<rect x="16.1367" y="110.072" width="4.56836" height="4.56836" fill="#FF0000" fill-opacity="0.2"/>
<rect x="16.2795" y="110.215" width="4.28284" height="4.28284" stroke="#B90F00" stroke-opacity="0.2" stroke-width="0.285523"/>
<rect x="16.1367" y="114.641" width="4.56836" height="4.56836" fill="#FF0000" fill-opacity="0.2"/>
<rect x="16.2795" y="114.783" width="4.28284" height="4.28284" stroke="#B90F00" stroke-opacity="0.2" stroke-width="0.285523"/>
<rect x="20.7051" y="73.5254" width="4.56836" height="4.56836" fill="#FF0000" fill-opacity="0.2"/>
<rect x="20.8478" y="73.6682" width="4.28284" height="4.28284" stroke="#B90F00" stroke-opacity="0.2" stroke-width="0.285523"/>
<rect x="20.7051" y="78.0938" width="4.56836" height="4.56836" fill="#FF0000" fill-opacity="0.2"/>
<rect x="20.8478" y="78.2365" width="4.28284" height="4.28284" stroke="#B90F00" stroke-opacity="0.2" stroke-width="0.285523"/>
<rect x="20.7051" y="82.6621" width="4.56836" height="4.56836" fill="#FF0000" fill-opacity="0.2"/>
<rect x="20.8478" y="82.8049" width="4.28284" height="4.28284" stroke="#B90F00" stroke-opacity="0.2" stroke-width="0.285523"/>
<rect x="20.7051" y="87.2305" width="4.56836" height="4.56836" fill="#FF0000" fill-opacity="0.2"/>
<rect x="20.8478" y="87.3732" width="4.28284" height="4.28284" stroke="#B90F00" stroke-opacity="0.2" stroke-width="0.285523"/>
<rect x="20.7051" y="91.7988" width="4.56836" height="4.56836" fill="#FF0000" fill-opacity="0.2"/>
<rect x="20.8478" y="91.9416" width="4.28284" height="4.28284" stroke="#B90F00" stroke-opacity="0.2" stroke-width="0.285523"/>
<rect x="20.7051" y="96.3672" width="4.56836" height="4.56836" fill="#FF0000" fill-opacity="0.2"/>
<rect x="20.8478" y="96.5099" width="4.28284" height="4.28284" stroke="#B90F00" stroke-opacity="0.2" stroke-width="0.285523"/>
<rect x="20.7051" y="100.936" width="4.56836" height="4.56836" fill="#FF0000" fill-opacity="0.2"/>
<rect x="20.8478" y="101.078" width="4.28284" height="4.28284" stroke="#B90F00" stroke-opacity="0.2" stroke-width="0.285523"/>
<rect x="20.7051" y="105.504" width="4.56836" height="4.56836" fill="#FF0000" fill-opacity="0.2"/>
<rect x="20.8478" y="105.647" width="4.28284" height="4.28284" stroke="#B90F00" stroke-opacity="0.2" stroke-width="0.285523"/>
<rect x="20.7051" y="110.072" width="4.56836" height="4.56836" fill="#FF0000" fill-opacity="0.2"/>
<rect x="20.8478" y="110.215" width="4.28284" height="4.28284" stroke="#B90F00" stroke-opacity="0.2" stroke-width="0.285523"/>
<rect x="20.7051" y="114.641" width="4.56836" height="4.56836" fill="#FF0000" fill-opacity="0.2"/>
<rect x="20.8478" y="114.783" width="4.28284" height="4.28284" stroke="#B90F00" stroke-opacity="0.2" stroke-width="0.285523"/>
<rect x="25.2734" y="73.5254" width="4.56836" height="4.56836" fill="#FF0000" fill-opacity="0.2"/>
<rect x="25.4162" y="73.6682" width="4.28284" height="4.28284" stroke="#B90F00" stroke-opacity="0.2" stroke-width="0.285523"/>
<rect x="25.2734" y="78.0938" width="4.56836" height="4.56836" fill="#FF0000" fill-opacity="0.2"/>
<rect x="25.4162" y="78.2365" width="4.28284" height="4.28284" stroke="#B90F00" stroke-opacity="0.2" stroke-width="0.285523"/>
<rect x="25.2734" y="82.6621" width="4.56836" height="4.56836" fill="#FF0000" fill-opacity="0.2"/>
<rect x="25.4162" y="82.8049" width="4.28284" height="4.28284" stroke="#B90F00" stroke-opacity="0.2" stroke-width="0.285523"/>
<rect x="25.2734" y="87.2305" width="4.56836" height="4.56836" fill="#FF0000" fill-opacity="0.2"/>
<rect x="25.4162" y="87.3732" width="4.28284" height="4.28284" stroke="#B90F00" stroke-opacity="0.2" stroke-width="0.285523"/>
<rect x="25.2734" y="91.7988" width="4.56836" height="4.56836" fill="#FF0000" fill-opacity="0.2"/>
<rect x="25.4162" y="91.9416" width="4.28284" height="4.28284" stroke="#B90F00" stroke-opacity="0.2" stroke-width="0.285523"/>
<rect x="25.2734" y="96.3672" width="4.56836" height="4.56836" fill="#FF0000" fill-opacity="0.2"/>
<rect x="25.4162" y="96.5099" width="4.28284" height="4.28284" stroke="#B90F00" stroke-opacity="0.2" stroke-width="0.285523"/>
<rect x="25.2734" y="100.936" width="4.56836" height="4.56836" fill="#FF0000" fill-opacity="0.2"/>
<rect x="25.4162" y="101.078" width="4.28284" height="4.28284" stroke="#B90F00" stroke-opacity="0.2" stroke-width="0.285523"/>
<rect x="25.2734" y="105.504" width="4.56836" height="4.56836" fill="#FF0000" fill-opacity="0.2"/>
<rect x="25.4162" y="105.647" width="4.28284" height="4.28284" stroke="#B90F00" stroke-opacity="0.2" stroke-width="0.285523"/>
<rect x="25.2734" y="110.072" width="4.56836" height="4.56836" fill="#FF0000" fill-opacity="0.2"/>
<rect x="25.4162" y="110.215" width="4.28284" height="4.28284" stroke="#B90F00" stroke-opacity="0.2" stroke-width="0.285523"/>
<rect x="25.2734" y="114.641" width="4.56836" height="4.56836" fill="#FF0000" fill-opacity="0.2"/>
<rect x="25.4162" y="114.783" width="4.28284" height="4.28284" stroke="#B90F00" stroke-opacity="0.2" stroke-width="0.285523"/>
<rect x="29.8418" y="73.5254" width="4.56836" height="4.56836" fill="#FF0000" fill-opacity="0.2"/>
<rect x="29.9846" y="73.6682" width="4.28284" height="4.28284" stroke="#B90F00" stroke-opacity="0.2" stroke-width="0.285523"/>
<rect x="29.8418" y="78.0938" width="4.56836" height="4.56836" fill="#FF0000" fill-opacity="0.2"/>
<rect x="29.9846" y="78.2365" width="4.28284" height="4.28284" stroke="#B90F00" stroke-opacity="0.2" stroke-width="0.285523"/>
<rect x="29.8418" y="82.6621" width="4.56836" height="4.56836" fill="#FF0000" fill-opacity="0.2"/>
<rect x="29.9846" y="82.8049" width="4.28284" height="4.28284" stroke="#B90F00" stroke-opacity="0.2" stroke-width="0.285523"/>
<rect x="29.8418" y="87.2305" width="4.56836" height="4.56836" fill="#FF0000" fill-opacity="0.2"/>
<rect x="29.9846" y="87.3732" width="4.28284" height="4.28284" stroke="#B90F00" stroke-opacity="0.2" stroke-width="0.285523"/>
<rect x="29.8418" y="91.7988" width="4.56836" height="4.56836" fill="#FF0000" fill-opacity="0.2"/>
<rect x="29.9846" y="91.9416" width="4.28284" height="4.28284" stroke="#B90F00" stroke-opacity="0.2" stroke-width="0.285523"/>
<rect x="29.8418" y="96.3672" width="4.56836" height="4.56836" fill="#FF0000" fill-opacity="0.2"/>
<rect x="29.9846" y="96.5099" width="4.28284" height="4.28284" stroke="#B90F00" stroke-opacity="0.2" stroke-width="0.285523"/>
<rect x="29.8418" y="100.936" width="4.56836" height="4.56836" fill="#FF0000" fill-opacity="0.2"/>
<rect x="29.9846" y="101.078" width="4.28284" height="4.28284" stroke="#B90F00" stroke-opacity="0.2" stroke-width="0.285523"/>
<rect x="29.8418" y="105.504" width="4.56836" height="4.56836" fill="#FF0000" fill-opacity="0.2"/>
<rect x="29.9846" y="105.647" width="4.28284" height="4.28284" stroke="#B90F00" stroke-opacity="0.2" stroke-width="0.285523"/>
<rect x="29.8418" y="110.072" width="4.56836" height="4.56836" fill="#FF0000" fill-opacity="0.2"/>
<rect x="29.9846" y="110.215" width="4.28284" height="4.28284" stroke="#B90F00" stroke-opacity="0.2" stroke-width="0.285523"/>
<rect x="29.8418" y="114.641" width="4.56836" height="4.56836" fill="#FF0000" fill-opacity="0.2"/>
<rect x="29.9846" y="114.783" width="4.28284" height="4.28284" stroke="#B90F00" stroke-opacity="0.2" stroke-width="0.285523"/>
<rect x="34.4102" y="73.5254" width="4.56836" height="4.56836" fill="#FF0000" fill-opacity="0.2"/>
<rect x="34.5529" y="73.6682" width="4.28284" height="4.28284" stroke="#B90F00" stroke-opacity="0.2" stroke-width="0.285523"/>
<rect x="34.4102" y="78.0938" width="4.56836" height="4.56836" fill="#FF0000" fill-opacity="0.2"/>
<rect x="34.5529" y="78.2365" width="4.28284" height="4.28284" stroke="#B90F00" stroke-opacity="0.2" stroke-width="0.285523"/>
<rect x="34.4102" y="82.6621" width="4.56836" height="4.56836" fill="#FF0000" fill-opacity="0.2"/>
<rect x="34.5529" y="82.8049" width="4.28284" height="4.28284" stroke="#B90F00" stroke-opacity="0.2" stroke-width="0.285523"/>
<rect x="34.4102" y="87.2305" width="4.56836" height="4.56836" fill="#FF0000" fill-opacity="0.2"/>
<rect x="34.5529" y="87.3732" width="4.28284" height="4.28284" stroke="#B90F00" stroke-opacity="0.2" stroke-width="0.285523"/>
<rect x="34.4102" y="91.7988" width="4.56836" height="4.56836" fill="#FF0000" fill-opacity="0.2"/>
<rect x="34.5529" y="91.9416" width="4.28284" height="4.28284" stroke="#B90F00" stroke-opacity="0.2" stroke-width="0.285523"/>
<rect x="34.4102" y="96.3672" width="4.56836" height="4.56836" fill="#FF0000" fill-opacity="0.2"/>
<rect x="34.5529" y="96.5099" width="4.28284" height="4.28284" stroke="#B90F00" stroke-opacity="0.2" stroke-width="0.285523"/>
<rect x="34.4102" y="100.936" width="4.56836" height="4.56836" fill="#FF0000" fill-opacity="0.2"/>
<rect x="34.5529" y="101.078" width="4.28284" height="4.28284" stroke="#B90F00" stroke-opacity="0.2" stroke-width="0.285523"/>
<rect x="34.4102" y="105.504" width="4.56836" height="4.56836" fill="#FF0000" fill-opacity="0.2"/>
<rect x="34.5529" y="105.647" width="4.28284" height="4.28284" stroke="#B90F00" stroke-opacity="0.2" stroke-width="0.285523"/>
<rect x="34.4102" y="110.072" width="4.56836" height="4.56836" fill="#FF0000" fill-opacity="0.2"/>
<rect x="34.5529" y="110.215" width="4.28284" height="4.28284" stroke="#B90F00" stroke-opacity="0.2" stroke-width="0.285523"/>
<rect x="34.4102" y="114.641" width="4.56836" height="4.56836" fill="#FF0000" fill-opacity="0.2"/>
<rect x="34.5529" y="114.783" width="4.28284" height="4.28284" stroke="#B90F00" stroke-opacity="0.2" stroke-width="0.285523"/>
<rect x="38.9785" y="73.5254" width="4.56836" height="4.56836" fill="#FF0000" fill-opacity="0.2"/>
<rect x="39.1213" y="73.6682" width="4.28284" height="4.28284" stroke="#B90F00" stroke-opacity="0.2" stroke-width="0.285523"/>
<rect x="38.9785" y="78.0938" width="4.56836" height="4.56836" fill="#FF0000" fill-opacity="0.2"/>
<rect x="39.1213" y="78.2365" width="4.28284" height="4.28284" stroke="#B90F00" stroke-opacity="0.2" stroke-width="0.285523"/>
<rect x="38.9785" y="82.6621" width="4.56836" height="4.56836" fill="#FF0000" fill-opacity="0.2"/>
<rect x="39.1213" y="82.8049" width="4.28284" height="4.28284" stroke="#B90F00" stroke-opacity="0.2" stroke-width="0.285523"/>
<rect x="38.9785" y="87.2305" width="4.56836" height="4.56836" fill="#FF0000" fill-opacity="0.2"/>
<rect x="39.1213" y="87.3732" width="4.28284" height="4.28284" stroke="#B90F00" stroke-opacity="0.2" stroke-width="0.285523"/>
<rect x="38.9785" y="91.7988" width="4.56836" height="4.56836" fill="#FF0000" fill-opacity="0.2"/>
<rect x="39.1213" y="91.9416" width="4.28284" height="4.28284" stroke="#B90F00" stroke-opacity="0.2" stroke-width="0.285523"/>
<rect x="38.9785" y="96.3672" width="4.56836" height="4.56836" fill="#FF0000" fill-opacity="0.2"/>
<rect x="39.1213" y="96.5099" width="4.28284" height="4.28284" stroke="#B90F00" stroke-opacity="0.2" stroke-width="0.285523"/>
<rect x="38.9785" y="100.936" width="4.56836" height="4.56836" fill="#FF0000" fill-opacity="0.2"/>
<rect x="39.1213" y="101.078" width="4.28284" height="4.28284" stroke="#B90F00" stroke-opacity="0.2" stroke-width="0.285523"/>
<rect x="38.9785" y="105.504" width="4.56836" height="4.56836" fill="#FF0000" fill-opacity="0.2"/>
<rect x="39.1213" y="105.647" width="4.28284" height="4.28284" stroke="#B90F00" stroke-opacity="0.2" stroke-width="0.285523"/>
<rect x="38.9785" y="110.072" width="4.56836" height="4.56836" fill="#FF0000" fill-opacity="0.2"/>
<rect x="39.1213" y="110.215" width="4.28284" height="4.28284" stroke="#B90F00" stroke-opacity="0.2" stroke-width="0.285523"/>
<rect x="38.9785" y="114.641" width="4.56836" height="4.56836" fill="#FF0000" fill-opacity="0.2"/>
<rect x="39.1213" y="114.783" width="4.28284" height="4.28284" stroke="#B90F00" stroke-opacity="0.2" stroke-width="0.285523"/>
<rect x="43.5469" y="73.5254" width="4.56836" height="4.56836" fill="#FF0000" fill-opacity="0.2"/>
<rect x="43.6896" y="73.6682" width="4.28284" height="4.28284" stroke="#B90F00" stroke-opacity="0.2" stroke-width="0.285523"/>
<rect x="43.5469" y="78.0938" width="4.56836" height="4.56836" fill="#FF0000" fill-opacity="0.2"/>
<rect x="43.6896" y="78.2365" width="4.28284" height="4.28284" stroke="#B90F00" stroke-opacity="0.2" stroke-width="0.285523"/>
<rect x="43.5469" y="82.6621" width="4.56836" height="4.56836" fill="#FF0000" fill-opacity="0.2"/>
<rect x="43.6896" y="82.8049" width="4.28284" height="4.28284" stroke="#B90F00" stroke-opacity="0.2" stroke-width="0.285523"/>
<rect x="43.5469" y="87.2305" width="4.56836" height="4.56836" fill="#FF0000" fill-opacity="0.2"/>
<rect x="43.6896" y="87.3732" width="4.28284" height="4.28284" stroke="#B90F00" stroke-opacity="0.2" stroke-width="0.285523"/>
<rect x="43.5469" y="91.7988" width="4.56836" height="4.56836" fill="#FF0000" fill-opacity="0.2"/>
<rect x="43.6896" y="91.9416" width="4.28284" height="4.28284" stroke="#B90F00" stroke-opacity="0.2" stroke-width="0.285523"/>
<rect x="43.5469" y="96.3672" width="4.56836" height="4.56836" fill="#FF0000" fill-opacity="0.2"/>
<rect x="43.6896" y="96.5099" width="4.28284" height="4.28284" stroke="#B90F00" stroke-opacity="0.2" stroke-width="0.285523"/>
<rect x="43.5469" y="100.936" width="4.56836" height="4.56836" fill="#FF0000" fill-opacity="0.2"/>
<rect x="43.6896" y="101.078" width="4.28284" height="4.28284" stroke="#B90F00" stroke-opacity="0.2" stroke-width="0.285523"/>
<rect x="43.5469" y="105.504" width="4.56836" height="4.56836" fill="#FF0000" fill-opacity="0.2"/>
<rect x="43.6896" y="105.647" width="4.28284" height="4.28284" stroke="#B90F00" stroke-opacity="0.2" stroke-width="0.285523"/>
<rect x="43.5469" y="110.072" width="4.56836" height="4.56836" fill="#FF0000" fill-opacity="0.2"/>
<rect x="43.6896" y="110.215" width="4.28284" height="4.28284" stroke="#B90F00" stroke-opacity="0.2" stroke-width="0.285523"/>
<rect x="43.5469" y="114.641" width="4.56836" height="4.56836" fill="#FF0000" fill-opacity="0.2"/>
<rect x="43.6896" y="114.783" width="4.28284" height="4.28284" stroke="#B90F00" stroke-opacity="0.2" stroke-width="0.285523"/>
<rect x="48.1152" y="73.5254" width="4.56836" height="4.56836" fill="#FF0000" fill-opacity="0.2"/>
<rect x="48.258" y="73.6682" width="4.28284" height="4.28284" stroke="#B90F00" stroke-opacity="0.2" stroke-width="0.285523"/>
<rect x="48.1152" y="78.0938" width="4.56836" height="4.56836" fill="#FF0000" fill-opacity="0.2"/>
<rect x="48.258" y="78.2365" width="4.28284" height="4.28284" stroke="#B90F00" stroke-opacity="0.2" stroke-width="0.285523"/>
<rect x="48.1152" y="82.6621" width="4.56836" height="4.56836" fill="#FF0000" fill-opacity="0.2"/>
<rect x="48.258" y="82.8049" width="4.28284" height="4.28284" stroke="#B90F00" stroke-opacity="0.2" stroke-width="0.285523"/>
<rect x="48.1152" y="87.2305" width="4.56836" height="4.56836" fill="#FF0000" fill-opacity="0.2"/>
<rect x="48.258" y="87.3732" width="4.28284" height="4.28284" stroke="#B90F00" stroke-opacity="0.2" stroke-width="0.285523"/>
<rect x="48.1152" y="91.7988" width="4.56836" height="4.56836" fill="#FF0000" fill-opacity="0.2"/>
<rect x="48.258" y="91.9416" width="4.28284" height="4.28284" stroke="#B90F00" stroke-opacity="0.2" stroke-width="0.285523"/>
<rect x="48.1152" y="96.3672" width="4.56836" height="4.56836" fill="#FF0000" fill-opacity="0.2"/>
<rect x="48.258" y="96.5099" width="4.28284" height="4.28284" stroke="#B90F00" stroke-opacity="0.2" stroke-width="0.285523"/>
<rect x="48.1152" y="100.936" width="4.56836" height="4.56836" fill="#FF0000" fill-opacity="0.2"/>
<rect x="48.258" y="101.078" width="4.28284" height="4.28284" stroke="#B90F00" stroke-opacity="0.2" stroke-width="0.285523"/>
<rect x="48.1152" y="105.504" width="4.56836" height="4.56836" fill="#FF0000" fill-opacity="0.2"/>
<rect x="48.258" y="105.647" width="4.28284" height="4.28284" stroke="#B90F00" stroke-opacity="0.2" stroke-width="0.285523"/>
<rect x="48.1152" y="110.072" width="4.56836" height="4.56836" fill="#FF0000" fill-opacity="0.2"/>
<rect x="48.258" y="110.215" width="4.28284" height="4.28284" stroke="#B90F00" stroke-opacity="0.2" stroke-width="0.285523"/>
<rect x="48.1152" y="114.641" width="4.56836" height="4.56836" fill="#FF0000" fill-opacity="0.2"/>
<rect x="48.258" y="114.783" width="4.28284" height="4.28284" stroke="#B90F00" stroke-opacity="0.2" stroke-width="0.285523"/>
<rect x="52.6836" y="73.5254" width="4.56836" height="4.56836" fill="#FF0000" fill-opacity="0.2"/>
<rect x="52.8264" y="73.6682" width="4.28284" height="4.28284" stroke="#B90F00" stroke-opacity="0.2" stroke-width="0.285523"/>
<rect x="52.6836" y="78.0938" width="4.56836" height="4.56836" fill="#FF0000" fill-opacity="0.2"/>
<rect x="52.8264" y="78.2365" width="4.28284" height="4.28284" stroke="#B90F00" stroke-opacity="0.2" stroke-width="0.285523"/>
<rect x="52.6836" y="82.6621" width="4.56836" height="4.56836" fill="#FF0000" fill-opacity="0.2"/>
<rect x="52.8264" y="82.8049" width="4.28284" height="4.28284" stroke="#B90F00" stroke-opacity="0.2" stroke-width="0.285523"/>
<rect x="52.6836" y="87.2305" width="4.56836" height="4.56836" fill="#FF0000" fill-opacity="0.2"/>
<rect x="52.8264" y="87.3732" width="4.28284" height="4.28284" stroke="#B90F00" stroke-opacity="0.2" stroke-width="0.285523"/>
<rect x="52.6836" y="91.7988" width="4.56836" height="4.56836" fill="#FF0000" fill-opacity="0.2"/>
<rect x="52.8264" y="91.9416" width="4.28284" height="4.28284" stroke="#B90F00" stroke-opacity="0.2" stroke-width="0.285523"/>
<rect x="52.6836" y="96.3672" width="4.56836" height="4.56836" fill="#FF0000" fill-opacity="0.2"/>
<rect x="52.8264" y="96.5099" width="4.28284" height="4.28284" stroke="#B90F00" stroke-opacity="0.2" stroke-width="0.285523"/>
<rect x="52.6836" y="100.936" width="4.56836" height="4.56836" fill="#FF0000" fill-opacity="0.2"/>
<rect x="52.8264" y="101.078" width="4.28284" height="4.28284" stroke="#B90F00" stroke-opacity="0.2" stroke-width="0.285523"/>
<rect x="52.6836" y="105.504" width="4.56836" height="4.56836" fill="#FF0000" fill-opacity="0.2"/>
<rect x="52.8264" y="105.647" width="4.28284" height="4.28284" stroke="#B90F00" stroke-opacity="0.2" stroke-width="0.285523"/>
<rect x="52.6836" y="110.072" width="4.56836" height="4.56836" fill="#FF0000" fill-opacity="0.2"/>
<rect x="52.8264" y="110.215" width="4.28284" height="4.28284" stroke="#B90F00" stroke-opacity="0.2" stroke-width="0.285523"/>
<rect x="52.6836" y="114.641" width="4.56836" height="4.56836" fill="#FF0000" fill-opacity="0.2"/>
<rect x="52.8264" y="114.783" width="4.28284" height="4.28284" stroke="#B90F00" stroke-opacity="0.2" stroke-width="0.285523"/>
<rect x="57.252" y="73.5254" width="4.56836" height="4.56836" fill="#FF0000" fill-opacity="0.2"/>
<rect x="57.3947" y="73.6682" width="4.28284" height="4.28284" stroke="#B90F00" stroke-opacity="0.2" stroke-width="0.285523"/>
<rect x="57.252" y="78.0938" width="4.56836" height="4.56836" fill="#FF0000" fill-opacity="0.2"/>
<rect x="57.3947" y="78.2365" width="4.28284" height="4.28284" stroke="#B90F00" stroke-opacity="0.2" stroke-width="0.285523"/>
<rect x="57.252" y="82.6621" width="4.56836" height="4.56836" fill="#FF0000" fill-opacity="0.2"/>
<rect x="57.3947" y="82.8049" width="4.28284" height="4.28284" stroke="#B90F00" stroke-opacity="0.2" stroke-width="0.285523"/>
<rect x="57.252" y="87.2305" width="4.56836" height="4.56836" fill="#FF0000" fill-opacity="0.2"/>
<rect x="57.3947" y="87.3732" width="4.28284" height="4.28284" stroke="#B90F00" stroke-opacity="0.2" stroke-width="0.285523"/>
<rect x="57.252" y="91.7988" width="4.56836" height="4.56836" fill="#FF0000" fill-opacity="0.2"/>
<rect x="57.3947" y="91.9416" width="4.28284" height="4.28284" stroke="#B90F00" stroke-opacity="0.2" stroke-width="0.285523"/>
<rect x="57.252" y="96.3672" width="4.56836" height="4.56836" fill="#FF0000" fill-opacity="0.2"/>
<rect x="57.3947" y="96.5099" width="4.28284" height="4.28284" stroke="#B90F00" stroke-opacity="0.2" stroke-width="0.285523"/>
<rect x="57.252" y="100.936" width="4.56836" height="4.56836" fill="#FF0000" fill-opacity="0.2"/>
<rect x="57.3947" y="101.078" width="4.28284" height="4.28284" stroke="#B90F00" stroke-opacity="0.2" stroke-width="0.285523"/>
<rect x="57.252" y="105.504" width="4.56836" height="4.56836" fill="#FF0000" fill-opacity="0.2"/>
<rect x="57.3947" y="105.647" width="4.28284" height="4.28284" stroke="#B90F00" stroke-opacity="0.2" stroke-width="0.285523"/>
<rect x="57.252" y="110.072" width="4.56836" height="4.56836" fill="#FF0000" fill-opacity="0.2"/>
<rect x="57.3947" y="110.215" width="4.28284" height="4.28284" stroke="#B90F00" stroke-opacity="0.2" stroke-width="0.285523"/>
<rect x="57.252" y="114.641" width="4.56836" height="4.56836" fill="#FF0000" fill-opacity="0.2"/>
<rect x="57.3947" y="114.783" width="4.28284" height="4.28284" stroke="#B90F00" stroke-opacity="0.2" stroke-width="0.285523"/>
<path d="M27.8406 130.931C27.8406 130.503 27.9579 130.106 28.1924 129.737C28.4353 129.369 28.7912 129.071 29.2602 128.845C29.7376 128.619 30.3113 128.506 30.9814 128.506C31.6514 128.506 32.2209 128.619 32.6899 128.845C33.1673 129.071 33.5233 129.369 33.7578 129.737C34.0007 130.106 34.1221 130.503 34.1221 130.931C34.1221 131.416 34.0049 131.831 33.7703 132.174C33.5358 132.509 33.1841 132.761 32.7151 132.928C33.2427 133.129 33.6447 133.422 33.9211 133.807C34.2059 134.184 34.3482 134.645 34.3482 135.189C34.3482 135.776 34.2017 136.282 33.9085 136.709C33.6154 137.128 33.2134 137.447 32.7025 137.664C32.2 137.882 31.6263 137.991 30.9814 137.991C30.3365 137.991 29.7586 137.882 29.2477 137.664C28.7451 137.447 28.3473 137.128 28.0542 136.709C27.7694 136.282 27.627 135.776 27.627 135.189C27.627 134.645 27.7652 134.184 28.0416 133.807C28.3264 133.422 28.7326 133.129 29.2602 132.928C28.7912 132.761 28.4353 132.505 28.1924 132.162C27.9579 131.818 27.8406 131.408 27.8406 130.931ZM29.5869 131.219C29.5869 131.621 29.7125 131.931 29.9638 132.149C30.215 132.367 30.5542 132.476 30.9814 132.476C31.4169 132.476 31.7603 132.367 32.0115 132.149C32.2628 131.931 32.3884 131.621 32.3884 131.219C32.3884 130.817 32.2586 130.508 31.999 130.29C31.7477 130.064 31.4085 129.951 30.9814 129.951C30.5626 129.951 30.2234 130.064 29.9638 130.29C29.7125 130.508 29.5869 130.817 29.5869 131.219ZM29.3482 135.089C29.3482 135.533 29.4947 135.885 29.7879 136.144C30.081 136.404 30.4788 136.534 30.9814 136.534C31.4839 136.534 31.8817 136.404 32.1748 136.144C32.4764 135.885 32.6271 135.533 32.6271 135.089C32.6271 134.637 32.4722 134.293 32.1623 134.059C31.8608 133.816 31.4671 133.694 30.9814 133.694C30.504 133.694 30.1103 133.816 29.8004 134.059C29.4989 134.293 29.3482 134.637 29.3482 135.089ZM39.9478 130.73C40.5341 130.73 41.0617 130.872 41.5307 131.157C41.9998 131.441 42.3641 131.856 42.6237 132.4C42.8917 132.936 43.0257 133.569 43.0257 134.297C43.0257 135.026 42.8917 135.663 42.6237 136.207C42.3641 136.743 41.9998 137.153 41.5307 137.438C41.0617 137.723 40.5341 137.865 39.9478 137.865C39.3615 137.865 38.859 137.727 38.4402 137.451C38.0299 137.166 37.7367 136.789 37.5608 136.32V141.094H35.7895V130.817H37.5608V132.262C37.7367 131.793 38.0299 131.42 38.4402 131.144C38.859 130.868 39.3615 130.73 39.9478 130.73ZM39.395 132.275C38.859 132.275 38.4151 132.459 38.0634 132.828C37.72 133.188 37.5483 133.678 37.5483 134.297C37.5483 134.909 37.72 135.399 38.0634 135.767C38.4151 136.127 38.859 136.307 39.395 136.307C39.9478 136.307 40.3917 136.132 40.7267 135.78C41.0617 135.42 41.2292 134.926 41.2292 134.297C41.2292 133.669 41.0617 133.175 40.7267 132.815C40.3917 132.455 39.9478 132.275 39.395 132.275ZM48.513 137.777L46.9301 135.541L45.5984 137.777H43.6511L45.9502 134.147L43.6009 130.817H45.5858L47.1311 133.016L48.4628 130.817H50.41L48.0733 134.348L50.498 137.777H48.513Z" fill="#212E44"/>
</g>
</g>
<path d="M330.852 73.616V71.8617L337.266 63.3829H339.496V71.7886H341.305V73.616H339.496V76.3936H337.394V73.616H330.852ZM337.541 65.868L333.009 71.7886H337.541V65.868ZM342.233 65.4478V63.4925H346.362V76.3936H344.17V65.4478H342.233ZM348.512 74.7672C350.486 73.415 352.063 72.0932 353.245 70.8019C354.439 69.4984 355.036 68.2923 355.036 67.1837C355.036 66.5259 354.871 66.0021 354.542 65.6122C354.226 65.2224 353.708 65.0275 352.989 65.0275C352.246 65.0275 351.686 65.2711 351.308 65.7584C350.93 66.2335 350.717 66.9157 350.668 67.805H348.64C348.725 66.331 349.176 65.2041 349.992 64.4244C350.821 63.6448 351.874 63.2549 353.153 63.2549C354.408 63.2549 355.389 63.59 356.096 64.26C356.814 64.9178 357.174 65.8315 357.174 67.001C357.174 67.939 356.881 68.8893 356.297 69.8517C355.724 70.8141 354.993 71.7034 354.104 72.5196C353.214 73.3236 352.295 74.018 351.344 74.6028H357.466V76.3022H348.512V74.7672ZM370.015 76.3936L367.549 72.8302L365.392 76.3936H363.072L366.397 71.1673L363.035 66.3249H365.392L367.804 69.7968L369.942 66.3249H372.245L368.919 71.4049L372.373 76.3936H370.015ZM378.486 66.4893C378.486 65.8559 378.657 65.2772 378.998 64.7534C379.339 64.2295 379.845 63.8092 380.515 63.4925C381.197 63.1758 382.013 63.0174 382.963 63.0174C383.913 63.0174 384.724 63.1758 385.394 63.4925C386.076 63.8092 386.587 64.2295 386.929 64.7534C387.282 65.2772 387.458 65.8559 387.458 66.4893C387.458 67.1959 387.27 67.805 386.892 68.3167C386.527 68.8283 385.978 69.1999 385.247 69.4314C386.064 69.6872 386.691 70.1014 387.13 70.674C387.568 71.2344 387.787 71.9227 387.787 72.7389C387.787 73.9936 387.343 74.9743 386.453 75.6809C385.564 76.3753 384.401 76.7225 382.963 76.7225C381.526 76.7225 380.362 76.3753 379.473 75.6809C378.596 74.9743 378.157 73.9936 378.157 72.7389C378.157 71.9227 378.377 71.2344 378.815 70.674C379.254 70.1014 379.881 69.6872 380.697 69.4314C379.966 69.1999 379.412 68.8283 379.034 68.3167C378.669 67.805 378.486 67.1959 378.486 66.4893ZM380.551 66.8183C380.551 67.4761 380.764 67.9878 381.191 68.3532C381.629 68.7065 382.22 68.8832 382.963 68.8832C383.706 68.8832 384.297 68.7065 384.736 68.3532C385.174 67.9878 385.394 67.4761 385.394 66.8183C385.394 66.1604 385.168 65.6488 384.717 65.2833C384.279 64.9178 383.694 64.7351 382.963 64.7351C382.232 64.7351 381.648 64.9178 381.209 65.2833C380.77 65.6488 380.551 66.1604 380.551 66.8183ZM380.186 72.6292C380.186 73.3723 380.435 73.9571 380.935 74.3835C381.434 74.7977 382.11 75.0048 382.963 75.0048C383.816 75.0048 384.492 74.7977 384.992 74.3835C385.491 73.9571 385.741 73.3723 385.741 72.6292C385.741 71.8739 385.479 71.3074 384.955 70.9298C384.443 70.54 383.779 70.345 382.963 70.345C382.159 70.345 381.495 70.54 380.971 70.9298C380.448 71.3196 380.186 71.8861 380.186 72.6292ZM389.649 74.7672C391.622 73.415 393.2 72.0932 394.382 70.8019C395.575 69.4984 396.172 68.2923 396.172 67.1837C396.172 66.5259 396.008 66.0021 395.679 65.6122C395.362 65.2224 394.844 65.0275 394.126 65.0275C393.383 65.0275 392.822 65.2711 392.445 65.7584C392.067 66.2335 391.854 66.9157 391.805 67.805H389.777C389.862 66.331 390.313 65.2041 391.129 64.4244C391.957 63.6448 393.011 63.2549 394.29 63.2549C395.545 63.2549 396.526 63.59 397.232 64.26C397.951 64.9178 398.31 65.8315 398.31 67.001C398.31 67.939 398.018 68.8893 397.433 69.8517C396.861 70.8141 396.13 71.7034 395.24 72.5196C394.351 73.3236 393.431 74.018 392.481 74.6028H398.603V76.3022H389.649V74.7672ZM404.951 63.0905C405.803 63.0905 406.534 63.2428 407.143 63.5473C407.753 63.8397 408.209 64.2478 408.514 64.7716C408.831 65.2955 408.989 65.8802 408.989 66.5259C408.989 67.3421 408.758 68.0243 408.295 68.5725C407.844 69.1085 407.204 69.4314 406.376 69.541V69.6324C407.265 69.8882 407.96 70.2719 408.459 70.7836C408.971 71.2831 409.227 71.9775 409.227 72.8668C409.227 73.951 408.867 74.8342 408.148 75.5164C407.43 76.1865 406.4 76.5215 405.06 76.5215C403.684 76.5215 402.575 76.1743 401.734 75.4799C400.894 74.7733 400.413 73.7317 400.291 72.3551H402.356C402.429 73.0861 402.691 73.6708 403.142 74.1094C403.592 74.5358 404.201 74.7489 404.969 74.7489C405.688 74.7489 406.236 74.5601 406.613 74.1825C407.003 73.8048 407.198 73.3175 407.198 72.7206C407.198 72.0018 406.918 71.4536 406.358 71.076C405.809 70.6983 405.011 70.5095 403.964 70.5095H403.47V68.7918H403.964C405.95 68.8162 406.942 68.14 406.942 66.7634C406.942 66.1665 406.76 65.6975 406.394 65.3564C406.029 65.0153 405.529 64.8447 404.896 64.8447C404.262 64.8447 403.732 65.0397 403.306 65.4295C402.88 65.8071 402.624 66.3614 402.538 67.0924H400.492C400.577 65.8254 401.004 64.8447 401.771 64.1503C402.538 63.4438 403.598 63.0905 404.951 63.0905ZM422.002 66.197C422.879 66.197 423.659 66.4041 424.341 66.8183C425.035 67.2325 425.577 67.8294 425.967 68.6091C426.357 69.3887 426.552 70.3024 426.552 71.3501C426.552 72.4099 426.357 73.3297 425.967 74.1094C425.577 74.889 425.035 75.486 424.341 75.9002C423.659 76.3144 422.879 76.5215 422.002 76.5215C421.088 76.5215 420.309 76.2961 419.663 75.8454C419.017 75.3946 418.567 74.7977 418.311 74.0546V81.1812H416.228V66.3249H418.311V68.6639C418.567 67.9208 419.017 67.3238 419.663 66.8731C420.309 66.4223 421.088 66.197 422.002 66.197ZM421.362 68.0243C420.778 68.0243 420.254 68.1644 419.791 68.4446C419.328 68.7126 418.962 69.1024 418.694 69.6141C418.426 70.1136 418.292 70.6922 418.292 71.3501C418.292 72.0201 418.426 72.6049 418.694 73.1043C418.962 73.6038 419.328 73.9936 419.791 74.2738C420.254 74.5418 420.778 74.6759 421.362 74.6759C422.288 74.6759 423.031 74.3835 423.592 73.7987C424.152 73.2018 424.432 72.3856 424.432 71.3501C424.432 70.3268 424.152 69.5166 423.592 68.9197C423.031 68.3228 422.288 68.0243 421.362 68.0243ZM428.449 63.4011C428.449 63.0478 428.571 62.7555 428.814 62.524C429.058 62.2925 429.381 62.1768 429.783 62.1768C430.185 62.1768 430.508 62.2925 430.751 62.524C431.007 62.7555 431.135 63.0478 431.135 63.4011C431.135 63.7544 431.007 64.0407 430.751 64.26C430.508 64.4793 430.185 64.5889 429.783 64.5889C429.381 64.5889 429.058 64.4793 428.814 64.26C428.571 64.0407 428.449 63.7544 428.449 63.4011ZM430.824 66.3249V76.3936H428.741V66.3249H430.824ZM439.485 76.3936L437.018 72.8302L434.862 76.3936H432.541L435.867 71.1673L432.505 66.3249H434.862L437.274 69.7968L439.412 66.3249H441.715L438.389 71.4049L441.843 76.3936H439.485ZM452.828 70.875C452.828 71.2161 452.804 71.5145 452.755 71.7704H445.007C445.044 72.8059 445.33 73.5734 445.866 74.0728C446.402 74.5723 447.066 74.822 447.858 74.822C448.552 74.822 449.137 74.6454 449.612 74.2921C450.099 73.9388 450.398 73.4698 450.507 72.8851H452.737C452.603 73.5916 452.323 74.219 451.896 74.7672C451.47 75.3154 450.916 75.7479 450.233 76.0646C449.551 76.3692 448.79 76.5215 447.949 76.5215C446.975 76.5215 446.11 76.3144 445.354 75.9002C444.611 75.486 444.026 74.889 443.6 74.1094C443.174 73.3297 442.96 72.4099 442.96 71.3501C442.96 70.3024 443.174 69.3887 443.6 68.6091C444.026 67.8294 444.611 67.2325 445.354 66.8183C446.11 66.4041 446.975 66.197 447.949 66.197C448.936 66.197 449.795 66.4041 450.526 66.8183C451.269 67.2203 451.835 67.7807 452.225 68.4994C452.627 69.206 452.828 69.9978 452.828 70.875ZM450.727 70.8202C450.751 70.1623 450.635 69.6141 450.38 69.1755C450.136 68.7248 449.795 68.3959 449.356 68.1888C448.93 67.9695 448.461 67.8599 447.949 67.8599C447.133 67.8599 446.451 68.1096 445.903 68.6091C445.354 69.1085 445.056 69.8456 445.007 70.8202H450.727ZM457.105 62.8712V76.3936H455.022V62.8712H457.105ZM463.117 66.197C464.298 66.197 465.242 66.5015 465.949 67.1106C466.668 67.7076 467.106 68.5116 467.265 69.5227H465.291C465.206 68.9745 464.968 68.536 464.578 68.2071C464.201 67.8659 463.695 67.6954 463.062 67.6954C462.538 67.6954 462.13 67.8233 461.837 68.0791C461.557 68.3228 461.417 68.6578 461.417 69.0842C461.417 69.4009 461.521 69.6567 461.728 69.8517C461.935 70.0466 462.191 70.1989 462.495 70.3085C462.812 70.4181 463.257 70.54 463.829 70.674C464.585 70.8445 465.194 71.0212 465.657 71.2039C466.132 71.3866 466.534 71.679 466.863 72.081C467.204 72.4709 467.374 73.0069 467.374 73.6891C467.374 74.5297 467.051 75.2119 466.406 75.7357C465.772 76.2595 464.913 76.5215 463.829 76.5215C462.574 76.5215 461.557 76.2291 460.778 75.6443C460.01 75.0596 459.547 74.2434 459.389 73.1957H461.417C461.478 73.7439 461.722 74.1886 462.148 74.5297C462.574 74.8708 463.135 75.0413 463.829 75.0413C464.329 75.0413 464.719 74.9134 464.999 74.6576C465.291 74.3896 465.437 74.0546 465.437 73.6525C465.437 73.2993 465.328 73.0191 465.108 72.812C464.889 72.6049 464.615 72.4465 464.286 72.3368C463.957 72.215 463.506 72.0932 462.934 71.9714C462.203 71.8008 461.606 71.6303 461.143 71.4597C460.692 71.2892 460.302 71.0151 459.974 70.6374C459.657 70.2476 459.498 69.7237 459.498 69.0659C459.498 68.2131 459.815 67.5248 460.449 67.001C461.094 66.465 461.984 66.197 463.117 66.197ZM486.702 66.1604C487.896 66.1604 488.846 66.5381 489.553 67.2934C490.271 68.0487 490.631 69.1268 490.631 70.5278V76.3936H488.548V70.7471C488.548 69.8699 488.328 69.1938 487.89 68.7187C487.451 68.2314 486.848 67.9878 486.081 67.9878C485.264 67.9878 484.613 68.2497 484.125 68.7735C483.65 69.2852 483.413 70.0405 483.413 71.0394V76.3936H481.33V70.7471C481.33 69.8699 481.11 69.1938 480.672 68.7187C480.233 68.2314 479.63 67.9878 478.863 67.9878C478.046 67.9878 477.395 68.2497 476.907 68.7735C476.432 69.2852 476.195 70.0405 476.195 71.0394V76.3936H474.112V66.3249H476.195V68.4263C476.451 67.6954 476.877 67.135 477.474 66.7452C478.071 66.3553 478.771 66.1604 479.575 66.1604C480.416 66.1604 481.141 66.3675 481.75 66.7817C482.371 67.1959 482.822 67.7929 483.102 68.5725C483.394 67.8172 483.864 67.2264 484.509 66.8C485.155 66.3736 485.886 66.1604 486.702 66.1604ZM497.851 66.197C498.825 66.197 499.702 66.4041 500.482 66.8183C501.262 67.2325 501.871 67.8294 502.309 68.6091C502.748 69.3887 502.967 70.3024 502.967 71.3501C502.967 72.4099 502.748 73.3297 502.309 74.1094C501.871 74.889 501.262 75.486 500.482 75.9002C499.702 76.3144 498.825 76.5215 497.851 76.5215C496.876 76.5215 495.999 76.3144 495.219 75.9002C494.452 75.486 493.843 74.889 493.392 74.1094C492.953 73.3175 492.734 72.3978 492.734 71.3501C492.734 70.3024 492.953 69.3887 493.392 68.6091C493.843 67.8294 494.452 67.2325 495.219 66.8183C495.999 66.4041 496.876 66.197 497.851 66.197ZM497.851 68.006C497.315 68.006 496.821 68.1279 496.371 68.3715C495.92 68.6152 495.554 68.9928 495.274 69.5045C495.006 70.0039 494.872 70.6191 494.872 71.3501C494.872 72.0932 495.006 72.7145 495.274 73.214C495.554 73.7134 495.92 74.085 496.371 74.3287C496.821 74.5723 497.315 74.6941 497.851 74.6941C498.387 74.6941 498.88 74.5723 499.331 74.3287C499.782 74.085 500.141 73.7134 500.409 73.214C500.689 72.7145 500.829 72.0932 500.829 71.3501C500.829 70.6191 500.689 70.0039 500.409 69.5045C500.141 68.9928 499.782 68.6152 499.331 68.3715C498.88 68.1279 498.387 68.006 497.851 68.006ZM510.927 66.197C511.804 66.197 512.584 66.4041 513.266 66.8183C513.961 67.2325 514.503 67.8294 514.893 68.6091C515.282 69.3887 515.477 70.3024 515.477 71.3501C515.477 72.4099 515.282 73.3297 514.893 74.1094C514.503 74.889 513.961 75.486 513.266 75.9002C512.584 76.3144 511.804 76.5215 510.927 76.5215C510.014 76.5215 509.234 76.2961 508.588 75.8454C507.943 75.3946 507.492 74.7977 507.236 74.0546V76.3936H505.153V62.8712H507.236V68.6639C507.492 67.9208 507.943 67.3238 508.588 66.8731C509.234 66.4223 510.014 66.197 510.927 66.197ZM510.288 68.0243C509.703 68.0243 509.179 68.1644 508.716 68.4446C508.253 68.7126 507.888 69.1024 507.62 69.6141C507.352 70.1136 507.218 70.6922 507.218 71.3501C507.218 72.0201 507.352 72.6049 507.62 73.1043C507.888 73.6038 508.253 73.9936 508.716 74.2738C509.179 74.5418 509.703 74.6759 510.288 74.6759C511.214 74.6759 511.957 74.3835 512.517 73.7987C513.077 73.2018 513.358 72.3856 513.358 71.3501C513.358 70.3268 513.077 69.5166 512.517 68.9197C511.957 68.3228 511.214 68.0243 510.288 68.0243ZM517.374 63.4011C517.374 63.0478 517.496 62.7555 517.74 62.524C517.983 62.2925 518.306 62.1768 518.708 62.1768C519.11 62.1768 519.433 62.2925 519.677 62.524C519.933 62.7555 520.06 63.0478 520.06 63.4011C520.06 63.7544 519.933 64.0407 519.677 64.26C519.433 64.4793 519.11 64.5889 518.708 64.5889C518.306 64.5889 517.983 64.4793 517.74 64.26C517.496 64.0407 517.374 63.7544 517.374 63.4011ZM519.75 66.3249V76.3936H517.667V66.3249H519.75ZM524.537 62.8712V76.3936H522.453V62.8712H524.537ZM536.596 70.875C536.596 71.2161 536.572 71.5145 536.523 71.7704H528.775C528.812 72.8059 529.098 73.5734 529.634 74.0728C530.17 74.5723 530.834 74.822 531.626 74.822C532.32 74.822 532.905 74.6454 533.38 74.2921C533.867 73.9388 534.166 73.4698 534.275 72.8851H536.505C536.371 73.5916 536.091 74.219 535.664 74.7672C535.238 75.3154 534.684 75.7479 534.001 76.0646C533.319 76.3692 532.558 76.5215 531.717 76.5215C530.743 76.5215 529.878 76.3144 529.122 75.9002C528.379 75.486 527.794 74.889 527.368 74.1094C526.942 73.3297 526.729 72.4099 526.729 71.3501C526.729 70.3024 526.942 69.3887 527.368 68.6091C527.794 67.8294 528.379 67.2325 529.122 66.8183C529.878 66.4041 530.743 66.197 531.717 66.197C532.704 66.197 533.563 66.4041 534.294 66.8183C535.037 67.2203 535.603 67.7807 535.993 68.4994C536.395 69.206 536.596 69.9978 536.596 70.875ZM534.495 70.8202C534.519 70.1623 534.403 69.6141 534.148 69.1755C533.904 68.7248 533.563 68.3959 533.124 68.1888C532.698 67.9695 532.229 67.8599 531.717 67.8599C530.901 67.8599 530.219 68.1096 529.671 68.6091C529.122 69.1085 528.824 69.8456 528.775 70.8202H534.495ZM545.339 68.2984C545.68 67.6406 546.167 67.1228 546.801 66.7452C547.434 66.3553 548.165 66.1604 548.994 66.1604V68.4263H548.372C547.459 68.4263 546.722 68.6517 546.161 69.1024C545.613 69.541 545.339 70.2719 545.339 71.2953V76.3936H543.256V66.3249H545.339V68.2984ZM560.093 70.875C560.093 71.2161 560.069 71.5145 560.02 71.7704H552.272C552.309 72.8059 552.595 73.5734 553.131 74.0728C553.667 74.5723 554.331 74.822 555.123 74.822C555.817 74.822 556.402 74.6454 556.877 74.2921C557.364 73.9388 557.663 73.4698 557.773 72.8851H560.002C559.868 73.5916 559.588 74.219 559.161 74.7672C558.735 75.3154 558.181 75.7479 557.498 76.0646C556.816 76.3692 556.055 76.5215 555.214 76.5215C554.24 76.5215 553.375 76.3144 552.619 75.9002C551.876 75.486 551.292 74.889 550.865 74.1094C550.439 73.3297 550.226 72.4099 550.226 71.3501C550.226 70.3024 550.439 69.3887 550.865 68.6091C551.292 67.8294 551.876 67.2325 552.619 66.8183C553.375 66.4041 554.24 66.197 555.214 66.197C556.201 66.197 557.06 66.4041 557.791 66.8183C558.534 67.2203 559.1 67.7807 559.49 68.4994C559.892 69.206 560.093 69.9978 560.093 70.875ZM557.992 70.8202C558.016 70.1623 557.9 69.6141 557.645 69.1755C557.401 68.7248 557.06 68.3959 556.621 68.1888C556.195 67.9695 555.726 67.8599 555.214 67.8599C554.398 67.8599 553.716 68.1096 553.168 68.6091C552.619 69.1085 552.321 69.8456 552.272 70.8202H557.992ZM565.595 66.197C566.777 66.197 567.721 66.5015 568.427 67.1106C569.146 67.7076 569.585 68.5116 569.743 69.5227H567.769C567.684 68.9745 567.447 68.536 567.057 68.2071C566.679 67.8659 566.174 67.6954 565.54 67.6954C565.016 67.6954 564.608 67.8233 564.316 68.0791C564.036 68.3228 563.895 68.6578 563.895 69.0842C563.895 69.4009 563.999 69.6567 564.206 69.8517C564.413 70.0466 564.669 70.1989 564.974 70.3085C565.29 70.4181 565.735 70.54 566.308 70.674C567.063 70.8445 567.672 71.0212 568.135 71.2039C568.61 71.3866 569.012 71.679 569.341 72.081C569.682 72.4709 569.853 73.0069 569.853 73.6891C569.853 74.5297 569.53 75.2119 568.884 75.7357C568.251 76.2595 567.392 76.5215 566.308 76.5215C565.053 76.5215 564.036 76.2291 563.256 75.6443C562.488 75.0596 562.025 74.2434 561.867 73.1957H563.895C563.956 73.7439 564.2 74.1886 564.626 74.5297C565.053 74.8708 565.613 75.0413 566.308 75.0413C566.807 75.0413 567.197 74.9134 567.477 74.6576C567.769 74.3896 567.916 74.0546 567.916 73.6525C567.916 73.2993 567.806 73.0191 567.587 72.812C567.367 72.6049 567.093 72.4465 566.764 72.3368C566.435 72.215 565.985 72.0932 565.412 71.9714C564.681 71.8008 564.084 71.6303 563.621 71.4597C563.171 71.2892 562.781 71.0151 562.452 70.6374C562.135 70.2476 561.977 69.7237 561.977 69.0659C561.977 68.2131 562.293 67.5248 562.927 67.001C563.573 66.465 564.462 66.197 565.595 66.197ZM576.729 66.197C577.704 66.197 578.581 66.4041 579.361 66.8183C580.14 67.2325 580.749 67.8294 581.188 68.6091C581.627 69.3887 581.846 70.3024 581.846 71.3501C581.846 72.4099 581.627 73.3297 581.188 74.1094C580.749 74.889 580.14 75.486 579.361 75.9002C578.581 76.3144 577.704 76.5215 576.729 76.5215C575.755 76.5215 574.878 76.3144 574.098 75.9002C573.33 75.486 572.721 74.889 572.271 74.1094C571.832 73.3175 571.613 72.3978 571.613 71.3501C571.613 70.3024 571.832 69.3887 572.271 68.6091C572.721 67.8294 573.33 67.2325 574.098 66.8183C574.878 66.4041 575.755 66.197 576.729 66.197ZM576.729 68.006C576.193 68.006 575.7 68.1279 575.249 68.3715C574.798 68.6152 574.433 68.9928 574.153 69.5045C573.885 70.0039 573.751 70.6191 573.751 71.3501C573.751 72.0932 573.885 72.7145 574.153 73.214C574.433 73.7134 574.798 74.085 575.249 74.3287C575.7 74.5723 576.193 74.6941 576.729 74.6941C577.265 74.6941 577.759 74.5723 578.209 74.3287C578.66 74.085 579.02 73.7134 579.288 73.214C579.568 72.7145 579.708 72.0932 579.708 71.3501C579.708 70.6191 579.568 70.0039 579.288 69.5045C579.02 68.9928 578.66 68.6152 578.209 68.3715C577.759 68.1279 577.265 68.006 576.729 68.006ZM586.115 62.8712V76.3936H584.031V62.8712H586.115ZM598.101 66.3249V76.3936H596V74.2007C595.744 74.9439 595.299 75.5225 594.666 75.9367C594.032 76.3387 593.295 76.5397 592.455 76.5397C591.285 76.5397 590.347 76.1621 589.64 75.4068C588.934 74.6515 588.581 73.5734 588.581 72.1724V66.3249H590.664V71.9531C590.664 72.8668 590.895 73.5734 591.358 74.0728C591.821 74.5601 592.455 74.8038 593.259 74.8038C594.087 74.8038 594.751 74.5358 595.25 73.9997C595.75 73.4637 596 72.684 596 71.6607V66.3249H598.101ZM605.84 74.5845V76.3936H604.561C603.489 76.3936 602.673 76.1377 602.113 75.6261C601.564 75.1022 601.29 74.2373 601.29 73.0312V68.0974H599.847V66.3249H601.29V63.8214H603.392V66.3249H605.822V68.0974H603.392V73.0678C603.392 73.6404 603.495 74.0363 603.702 74.2556C603.922 74.4748 604.299 74.5845 604.835 74.5845H605.84ZM607.682 63.4011C607.682 63.0478 607.804 62.7555 608.048 62.524C608.291 62.2925 608.614 62.1768 609.016 62.1768C609.418 62.1768 609.741 62.2925 609.985 62.524C610.24 62.7555 610.368 63.0478 610.368 63.4011C610.368 63.7544 610.24 64.0407 609.985 64.26C609.741 64.4793 609.418 64.5889 609.016 64.5889C608.614 64.5889 608.291 64.4793 608.048 64.26C607.804 64.0407 607.682 63.7544 607.682 63.4011ZM610.058 66.3249V76.3936H607.975V66.3249H610.058ZM617.366 66.197C618.341 66.197 619.218 66.4041 619.998 66.8183C620.777 67.2325 621.386 67.8294 621.825 68.6091C622.264 69.3887 622.483 70.3024 622.483 71.3501C622.483 72.4099 622.264 73.3297 621.825 74.1094C621.386 74.889 620.777 75.486 619.998 75.9002C619.218 76.3144 618.341 76.5215 617.366 76.5215C616.392 76.5215 615.515 76.3144 614.735 75.9002C613.967 75.486 613.358 74.889 612.908 74.1094C612.469 73.3175 612.25 72.3978 612.25 71.3501C612.25 70.3024 612.469 69.3887 612.908 68.6091C613.358 67.8294 613.967 67.2325 614.735 66.8183C615.515 66.4041 616.392 66.197 617.366 66.197ZM617.366 68.006C616.83 68.006 616.337 68.1279 615.886 68.3715C615.435 68.6152 615.07 68.9928 614.79 69.5045C614.522 70.0039 614.388 70.6191 614.388 71.3501C614.388 72.0932 614.522 72.7145 614.79 73.214C615.07 73.7134 615.435 74.085 615.886 74.3287C616.337 74.5723 616.83 74.6941 617.366 74.6941C617.902 74.6941 618.396 74.5723 618.846 74.3287C619.297 74.085 619.657 73.7134 619.925 73.214C620.205 72.7145 620.345 72.0932 620.345 71.3501C620.345 70.6191 620.205 70.0039 619.925 69.5045C619.657 68.9928 619.297 68.6152 618.846 68.3715C618.396 68.1279 617.902 68.006 617.366 68.006ZM630.297 66.1604C631.466 66.1604 632.404 66.5381 633.111 67.2934C633.817 68.0487 634.171 69.1268 634.171 70.5278V76.3936H632.087V70.7471C632.087 69.8456 631.856 69.1512 631.393 68.6639C630.93 68.1644 630.297 67.9147 629.493 67.9147C628.664 67.9147 628 68.1827 627.501 68.7187C627.001 69.2425 626.752 70.0161 626.752 71.0394V76.3936H624.668V66.3249H626.752V68.536C627.02 67.7807 627.47 67.1959 628.104 66.7817C628.737 66.3675 629.468 66.1604 630.297 66.1604ZM647.358 68.9014V70.6557H639.83V68.9014H647.358ZM661.05 63.3829C662.584 63.3829 663.864 63.7605 664.887 64.5158C665.91 65.2711 666.586 66.3005 666.915 67.604H664.722C664.442 66.9096 663.979 66.3553 663.334 65.9411C662.7 65.5269 661.945 65.3198 661.068 65.3198C660.264 65.3198 659.539 65.5087 658.893 65.8863C658.26 66.264 657.76 66.8 657.395 67.4944C657.042 68.1888 656.865 69.005 656.865 69.943C656.865 70.9298 657.048 71.7765 657.413 72.483C657.779 73.1896 658.29 73.7317 658.948 74.1094C659.618 74.4748 660.392 74.6576 661.269 74.6576C662.341 74.6576 663.261 74.3287 664.028 73.6708C664.796 73.0008 665.258 72.0871 665.417 70.9298H660.684V69.3948H667.171V71.3866C667.025 72.3368 666.684 73.2018 666.148 73.9815C665.624 74.7489 664.923 75.3642 664.046 75.8271C663.181 76.29 662.189 76.5215 661.068 76.5215C659.813 76.5215 658.704 76.2413 657.742 75.6809C656.78 75.1205 656.036 74.3469 655.513 73.3602C654.989 72.3612 654.727 71.2222 654.727 69.943C654.727 68.6639 654.989 67.5309 655.513 66.5442C656.036 65.5452 656.774 64.7716 657.724 64.2234C658.686 63.6631 659.795 63.3829 661.05 63.3829ZM674.068 66.197C675.043 66.197 675.92 66.4041 676.7 66.8183C677.479 67.2325 678.088 67.8294 678.527 68.6091C678.965 69.3887 679.185 70.3024 679.185 71.3501C679.185 72.4099 678.965 73.3297 678.527 74.1094C678.088 74.889 677.479 75.486 676.7 75.9002C675.92 76.3144 675.043 76.5215 674.068 76.5215C673.094 76.5215 672.216 76.3144 671.437 75.9002C670.669 75.486 670.06 74.889 669.609 74.1094C669.171 73.3175 668.952 72.3978 668.952 71.3501C668.952 70.3024 669.171 69.3887 669.609 68.6091C670.06 67.8294 670.669 67.2325 671.437 66.8183C672.216 66.4041 673.094 66.197 674.068 66.197ZM674.068 68.006C673.532 68.006 673.039 68.1279 672.588 68.3715C672.137 68.6152 671.772 68.9928 671.492 69.5045C671.224 70.0039 671.09 70.6191 671.09 71.3501C671.09 72.0932 671.224 72.7145 671.492 73.214C671.772 73.7134 672.137 74.085 672.588 74.3287C673.039 74.5723 673.532 74.6941 674.068 74.6941C674.604 74.6941 675.098 74.5723 675.548 74.3287C675.999 74.085 676.358 73.7134 676.626 73.214C676.907 72.7145 677.047 72.0932 677.047 71.3501C677.047 70.6191 676.907 70.0039 676.626 69.5045C676.358 68.9928 675.999 68.6152 675.548 68.3715C675.098 68.1279 674.604 68.006 674.068 68.006ZM685.975 66.197C686.95 66.197 687.827 66.4041 688.607 66.8183C689.386 67.2325 689.995 67.8294 690.434 68.6091C690.872 69.3887 691.092 70.3024 691.092 71.3501C691.092 72.4099 690.872 73.3297 690.434 74.1094C689.995 74.889 689.386 75.486 688.607 75.9002C687.827 76.3144 686.95 76.5215 685.975 76.5215C685.001 76.5215 684.124 76.3144 683.344 75.9002C682.576 75.486 681.967 74.889 681.516 74.1094C681.078 73.3175 680.859 72.3978 680.859 71.3501C680.859 70.3024 681.078 69.3887 681.516 68.6091C681.967 67.8294 682.576 67.2325 683.344 66.8183C684.124 66.4041 685.001 66.197 685.975 66.197ZM685.975 68.006C685.439 68.006 684.946 68.1279 684.495 68.3715C684.044 68.6152 683.679 68.9928 683.399 69.5045C683.131 70.0039 682.997 70.6191 682.997 71.3501C682.997 72.0932 683.131 72.7145 683.399 73.214C683.679 73.7134 684.044 74.085 684.495 74.3287C684.946 74.5723 685.439 74.6941 685.975 74.6941C686.511 74.6941 687.005 74.5723 687.455 74.3287C687.906 74.085 688.265 73.7134 688.533 73.214C688.814 72.7145 688.954 72.0932 688.954 71.3501C688.954 70.6191 688.814 70.0039 688.533 69.5045C688.265 68.9928 687.906 68.6152 687.455 68.3715C687.005 68.1279 686.511 68.006 685.975 68.006ZM697.316 66.197C698.229 66.197 699.009 66.4223 699.655 66.8731C700.3 67.3238 700.757 67.9208 701.025 68.6639V66.3249H703.108V76.5032C703.108 77.4412 702.913 78.2696 702.524 78.9884C702.146 79.7193 701.598 80.2919 700.879 80.7061C700.16 81.1203 699.308 81.3274 698.321 81.3274C696.908 81.3274 695.762 80.9924 694.885 80.3223C694.02 79.6523 693.478 78.7447 693.259 77.5996H695.324C695.494 78.1965 695.823 78.6595 696.311 78.9884C696.798 79.3295 697.419 79.5 698.175 79.5C699.003 79.5 699.685 79.2442 700.221 78.7326C700.757 78.2209 701.025 77.4778 701.025 76.5032V74.0546C700.757 74.7977 700.3 75.3946 699.655 75.8454C699.009 76.2961 698.229 76.5215 697.316 76.5215C696.439 76.5215 695.653 76.3144 694.958 75.9002C694.276 75.486 693.74 74.889 693.35 74.1094C692.961 73.3297 692.766 72.4099 692.766 71.3501C692.766 70.3024 692.961 69.3887 693.35 68.6091C693.74 67.8294 694.276 67.2325 694.958 66.8183C695.653 66.4041 696.439 66.197 697.316 66.197ZM697.955 68.0243C697.029 68.0243 696.286 68.3228 695.726 68.9197C695.178 69.5045 694.904 70.3146 694.904 71.3501C694.904 72.3856 695.178 73.2018 695.726 73.7987C696.286 74.3835 697.029 74.6759 697.955 74.6759C698.54 74.6759 699.064 74.5418 699.527 74.2738C699.99 73.9936 700.355 73.6038 700.623 73.1043C700.891 72.6049 701.025 72.0201 701.025 71.3501C701.025 70.6922 700.891 70.1136 700.623 69.6141C700.355 69.1024 699.99 68.7126 699.527 68.4446C699.064 68.1644 698.54 68.0243 697.955 68.0243ZM707.874 62.8712V76.3936H705.791V62.8712H707.874ZM719.934 70.875C719.934 71.2161 719.909 71.5145 719.861 71.7704H712.113C712.149 72.8059 712.436 73.5734 712.972 74.0728C713.508 74.5723 714.172 74.822 714.963 74.822C715.658 74.822 716.243 74.6454 716.718 74.2921C717.205 73.9388 717.503 73.4698 717.613 72.8851H719.842C719.708 73.5916 719.428 74.219 719.002 74.7672C718.576 75.3154 718.021 75.7479 717.339 76.0646C716.657 76.3692 715.895 76.5215 715.055 76.5215C714.08 76.5215 713.215 76.3144 712.46 75.9002C711.717 75.486 711.132 74.889 710.706 74.1094C710.279 73.3297 710.066 72.4099 710.066 71.3501C710.066 70.3024 710.279 69.3887 710.706 68.6091C711.132 67.8294 711.717 67.2325 712.46 66.8183C713.215 66.4041 714.08 66.197 715.055 66.197C716.042 66.197 716.9 66.4041 717.631 66.8183C718.374 67.2203 718.941 67.7807 719.331 68.4994C719.733 69.206 719.934 69.9978 719.934 70.875ZM717.832 70.8202C717.857 70.1623 717.741 69.6141 717.485 69.1755C717.242 68.7248 716.9 68.3959 716.462 68.1888C716.035 67.9695 715.566 67.8599 715.055 67.8599C714.239 67.8599 713.556 68.1096 713.008 68.6091C712.46 69.1085 712.162 69.8456 712.113 70.8202H717.832ZM728.677 71.3866V76.3936H726.594V63.4925H730.979C732.465 63.4925 733.58 63.8458 734.323 64.5524C735.078 65.2589 735.456 66.2274 735.456 67.4578C735.456 68.6761 735.072 69.6385 734.305 70.345C733.537 71.0394 732.429 71.3866 730.979 71.3866H728.677ZM730.76 69.6872C732.478 69.6872 733.336 68.9441 733.336 67.4578C733.336 66.7269 733.129 66.1726 732.715 65.795C732.313 65.4051 731.661 65.2102 730.76 65.2102H728.677V69.6872H730.76ZM737.173 63.4011C737.173 63.0478 737.295 62.7555 737.539 62.524C737.782 62.2925 738.105 62.1768 738.507 62.1768C738.909 62.1768 739.232 62.2925 739.476 62.524C739.731 62.7555 739.859 63.0478 739.859 63.4011C739.859 63.7544 739.731 64.0407 739.476 64.26C739.232 64.4793 738.909 64.5889 738.507 64.5889C738.105 64.5889 737.782 64.4793 737.539 64.26C737.295 64.0407 737.173 63.7544 737.173 63.4011ZM739.549 66.3249V76.3936H737.465V66.3249H739.549ZM748.209 76.3936L745.743 72.8302L743.586 76.3936H741.266L744.591 71.1673L741.229 66.3249H743.586L745.998 69.7968L748.136 66.3249H750.439L747.113 71.4049L750.567 76.3936H748.209ZM761.552 70.875C761.552 71.2161 761.528 71.5145 761.479 71.7704H753.731C753.768 72.8059 754.054 73.5734 754.59 74.0728C755.126 74.5723 755.79 74.822 756.582 74.822C757.276 74.822 757.861 74.6454 758.336 74.2921C758.823 73.9388 759.122 73.4698 759.232 72.8851H761.461C761.327 73.5916 761.047 74.219 760.62 74.7672C760.194 75.3154 759.64 75.7479 758.957 76.0646C758.275 76.3692 757.514 76.5215 756.673 76.5215C755.699 76.5215 754.834 76.3144 754.078 75.9002C753.335 75.486 752.751 74.889 752.324 74.1094C751.898 73.3297 751.685 72.4099 751.685 71.3501C751.685 70.3024 751.898 69.3887 752.324 68.6091C752.751 67.8294 753.335 67.2325 754.078 66.8183C754.834 66.4041 755.699 66.197 756.673 66.197C757.66 66.197 758.519 66.4041 759.25 66.8183C759.993 67.2203 760.559 67.7807 760.949 68.4994C761.351 69.206 761.552 69.9978 761.552 70.875ZM759.451 70.8202C759.475 70.1623 759.36 69.6141 759.104 69.1755C758.86 68.7248 758.519 68.3959 758.08 68.1888C757.654 67.9695 757.185 67.8599 756.673 67.8599C755.857 67.8599 755.175 68.1096 754.627 68.6091C754.078 69.1085 753.78 69.8456 753.731 70.8202H759.451ZM765.83 62.8712V76.3936H763.746V62.8712H765.83ZM772.469 74.7672C774.442 73.415 776.02 72.0932 777.202 70.8019C778.396 69.4984 778.992 68.2923 778.992 67.1837C778.992 66.5259 778.828 66.0021 778.499 65.6122C778.182 65.2224 777.665 65.0275 776.946 65.0275C776.203 65.0275 775.642 65.2711 775.265 65.7584C774.887 66.2335 774.674 66.9157 774.625 67.805H772.597C772.682 66.331 773.133 65.2041 773.949 64.4244C774.777 63.6448 775.831 63.2549 777.11 63.2549C778.365 63.2549 779.346 63.59 780.052 64.26C780.771 64.9178 781.13 65.8315 781.13 67.001C781.13 67.939 780.838 68.8893 780.253 69.8517C779.681 70.8141 778.95 71.7034 778.061 72.5196C777.171 73.3236 776.251 74.018 775.301 74.6028H781.423V76.3022H772.469V74.7672ZM795.379 76.3936L792.291 71.6242L789.532 76.3936H787.138L791.14 69.8151L787.047 63.4925H789.532L792.565 68.1705L795.306 63.4925H797.7L793.716 69.9613L797.865 76.3936H795.379ZM801.684 74.7672H806.143V76.3936H799.601V63.4925H801.684V74.7672Z" fill="#212E44"/>
<path d="M302.574 71.9429L308.958 78.3182C310.174 79.5344 311.422 79.5424 312.622 78.3341L319.029 71.927C320.238 70.7187 320.23 69.4706 319.013 68.2544L312.638 61.8791C311.422 60.6628 310.174 60.6549 308.966 61.8632L302.558 68.2703C301.35 69.4786 301.366 70.7266 302.574 71.9429ZM303.751 70.9095C303.218 70.3769 303.202 69.8284 303.751 69.2799L309.975 63.0556C310.532 62.5071 311.072 62.515 311.605 63.0476L317.837 69.2878C318.37 69.8204 318.385 70.3689 317.837 70.9174L311.613 77.1417C311.064 77.6902 310.508 77.6743 309.983 77.1496L303.751 70.9095ZM309.943 73.8745C310.23 73.8745 310.476 73.7315 310.643 73.4771L314.196 67.9205C314.3 67.7536 314.395 67.5628 314.395 67.38C314.395 66.9905 314.045 66.7281 313.672 66.7281C313.433 66.7281 313.218 66.8553 313.052 67.1256L309.912 72.1655L308.433 70.2815C308.242 70.035 308.051 69.9476 307.813 69.9476C307.423 69.9476 307.121 70.2576 307.121 70.6551C307.121 70.8459 307.193 71.0208 307.328 71.1877L309.204 73.4771C309.419 73.7553 309.649 73.8745 309.943 73.8745Z" fill="#810900"/>
<path d="M302.574 125.621L308.958 131.996C310.174 133.213 311.422 133.221 312.622 132.012L319.029 125.605C320.238 124.397 320.23 123.149 319.013 121.933L312.638 115.557C311.422 114.341 310.174 114.333 308.966 115.541L302.558 121.949C301.35 123.157 301.366 124.405 302.574 125.621ZM303.751 124.588C303.218 124.055 303.202 123.507 303.751 122.958L309.975 116.734C310.532 116.185 311.072 116.193 311.605 116.726L317.837 122.966C318.37 123.499 318.385 124.047 317.837 124.596L311.613 130.82C311.064 131.368 310.508 131.353 309.983 130.828L303.751 124.588ZM309.943 127.553C310.23 127.553 310.476 127.41 310.643 127.155L314.196 121.599C314.3 121.432 314.395 121.241 314.395 121.058C314.395 120.669 314.045 120.406 313.672 120.406C313.433 120.406 313.218 120.534 313.052 120.804L309.912 125.844L308.433 123.96C308.242 123.713 308.051 123.626 307.813 123.626C307.423 123.626 307.121 123.936 307.121 124.333C307.121 124.524 307.193 124.699 307.328 124.866L309.204 127.155C309.419 127.434 309.649 127.553 309.943 127.553Z" fill="#810900"/>
<path d="M302.574 179.299L308.958 185.675C310.174 186.891 311.422 186.899 312.622 185.691L319.029 179.283C320.238 178.075 320.23 176.827 319.013 175.611L312.638 169.236C311.422 168.019 310.174 168.011 308.966 169.22L302.558 175.627C301.35 176.835 301.366 178.083 302.574 179.299ZM303.751 178.266C303.218 177.733 303.202 177.185 303.751 176.636L309.975 170.412C310.532 169.864 311.072 169.871 311.605 170.404L317.837 176.644C318.37 177.177 318.385 177.725 317.837 178.274L311.613 184.498C311.064 185.047 310.508 185.031 309.983 184.506L303.751 178.266ZM309.943 181.231C310.23 181.231 310.476 181.088 310.643 180.834L314.196 175.277C314.3 175.11 314.395 174.919 314.395 174.736C314.395 174.347 314.045 174.085 313.672 174.085C313.433 174.085 313.218 174.212 313.052 174.482L309.912 179.522L308.433 177.638C308.242 177.391 308.051 177.304 307.813 177.304C307.423 177.304 307.121 177.614 307.121 178.012C307.121 178.202 307.193 178.377 307.328 178.544L309.204 180.834C309.419 181.112 309.649 181.231 309.943 181.231Z" fill="#810900"/>
<path d="M302.574 232.978L308.958 239.353C310.174 240.57 311.422 240.578 312.622 239.369L319.029 232.962C320.238 231.754 320.23 230.506 319.013 229.29L312.638 222.914C311.422 221.698 310.174 221.69 308.966 222.898L302.558 229.305C301.35 230.514 301.366 231.762 302.574 232.978ZM303.751 231.945C303.218 231.412 303.202 230.864 303.751 230.315L309.975 224.091C310.532 223.542 311.072 223.55 311.605 224.083L317.837 230.323C318.37 230.856 318.385 231.404 317.837 231.953L311.613 238.177C311.064 238.725 310.508 238.709 309.983 238.185L303.751 231.945ZM309.943 234.91C310.23 234.91 310.476 234.767 310.643 234.512L314.196 228.956C314.3 228.789 314.395 228.598 314.395 228.415C314.395 228.026 314.045 227.763 313.672 227.763C313.433 227.763 313.218 227.89 313.052 228.161L309.912 233.201L308.433 231.317C308.242 231.07 308.051 230.983 307.813 230.983C307.423 230.983 307.121 231.293 307.121 231.69C307.121 231.881 307.193 232.056 307.328 232.223L309.204 234.512C309.419 234.79 309.649 234.91 309.943 234.91Z" fill="#810900"/>
<path d="M302.574 286.656L308.958 293.031C310.174 294.247 311.422 294.255 312.622 293.047L319.029 286.64C320.238 285.432 320.23 284.184 319.013 282.967L312.638 276.592C311.422 275.376 310.174 275.368 308.966 276.576L302.558 282.983C301.35 284.191 301.366 285.44 302.574 286.656ZM303.751 285.622C303.218 285.09 303.202 284.541 303.751 283.993L309.975 277.768C310.532 277.22 311.072 277.228 311.605 277.761L317.837 284.001C318.37 284.533 318.385 285.082 317.837 285.63L311.613 291.855C311.064 292.403 310.508 292.387 309.983 291.863L303.751 285.622ZM309.943 288.587C310.23 288.587 310.476 288.444 310.643 288.19L314.196 282.633C314.3 282.466 314.395 282.276 314.395 282.093C314.395 281.703 314.045 281.441 313.672 281.441C313.433 281.441 313.218 281.568 313.052 281.838L309.912 286.878L308.433 284.994C308.242 284.748 308.051 284.66 307.813 284.66C307.423 284.66 307.121 284.971 307.121 285.368C307.121 285.559 307.193 285.734 307.328 285.901L309.204 288.19C309.419 288.468 309.649 288.587 309.943 288.587Z" fill="#810900"/>
<path d="M330.944 128.445C332.917 127.093 334.495 125.771 335.677 124.48C336.871 123.177 337.467 121.971 337.467 120.862C337.467 120.204 337.303 119.68 336.974 119.29C336.657 118.901 336.14 118.706 335.421 118.706C334.678 118.706 334.117 118.949 333.74 119.437C333.362 119.912 333.149 120.594 333.1 121.483H331.072C331.157 120.009 331.608 118.882 332.424 118.103C333.252 117.323 334.306 116.933 335.585 116.933C336.84 116.933 337.821 117.268 338.527 117.938C339.246 118.596 339.605 119.51 339.605 120.679C339.605 121.617 339.313 122.567 338.728 123.53C338.156 124.492 337.425 125.382 336.536 126.198C335.646 127.002 334.726 127.696 333.776 128.281H339.898V129.98H330.944V128.445ZM341.714 123.53C341.714 125.589 342.079 127.203 342.81 128.372C343.541 129.53 344.759 130.108 346.465 130.108C348.171 130.108 349.389 129.524 350.12 128.354C350.851 127.185 351.216 125.577 351.216 123.53C351.216 121.495 350.851 119.9 350.12 118.742C349.389 117.573 348.171 116.988 346.465 116.988C344.759 116.988 343.541 117.567 342.81 118.724C342.079 119.881 341.714 121.483 341.714 123.53ZM349.133 123.53C349.133 125.016 348.95 126.155 348.585 126.947C348.219 127.739 347.513 128.135 346.465 128.135C345.405 128.135 344.692 127.739 344.327 126.947C343.962 126.155 343.779 125.016 343.779 123.53C343.779 122.056 343.962 120.929 344.327 120.149C344.692 119.37 345.405 118.98 346.465 118.98C347.513 118.98 348.219 119.376 348.585 120.168C348.95 120.947 349.133 122.068 349.133 123.53ZM359.367 119.875C360.244 119.875 361.024 120.082 361.706 120.496C362.4 120.911 362.942 121.508 363.332 122.287C363.722 123.067 363.917 123.981 363.917 125.028C363.917 126.088 363.722 127.008 363.332 127.788C362.942 128.567 362.4 129.164 361.706 129.578C361.024 129.993 360.244 130.2 359.367 130.2C358.453 130.2 357.674 129.974 357.028 129.524C356.382 129.073 355.931 128.476 355.676 127.733V134.859H353.592V120.003H355.676V122.342C355.931 121.599 356.382 121.002 357.028 120.551C357.674 120.101 358.453 119.875 359.367 119.875ZM358.727 121.703C358.143 121.703 357.619 121.843 357.156 122.123C356.693 122.391 356.327 122.781 356.059 123.292C355.791 123.792 355.657 124.37 355.657 125.028C355.657 125.698 355.791 126.283 356.059 126.783C356.327 127.282 356.693 127.672 357.156 127.952C357.619 128.22 358.143 128.354 358.727 128.354C359.653 128.354 360.396 128.062 360.957 127.477C361.517 126.88 361.797 126.064 361.797 125.028C361.797 124.005 361.517 123.195 360.957 122.598C360.396 122.001 359.653 121.703 358.727 121.703ZM372.063 130.072L369.596 126.508L367.44 130.072H365.119L368.445 124.846L365.083 120.003H367.44L369.852 123.475L371.99 120.003H374.293L370.967 125.083L374.421 130.072H372.063ZM384.554 119.875C385.468 119.875 386.248 120.101 386.893 120.551C387.539 121.002 387.996 121.599 388.264 122.342V120.003H390.347V130.181C390.347 131.119 390.152 131.948 389.762 132.667C389.385 133.398 388.836 133.97 388.118 134.384C387.399 134.799 386.546 135.006 385.559 135.006C384.146 135.006 383.001 134.671 382.124 134.001C381.259 133.331 380.717 132.423 380.498 131.278H382.562C382.733 131.875 383.062 132.338 383.549 132.667C384.037 133.008 384.658 133.178 385.413 133.178C386.242 133.178 386.924 132.922 387.46 132.411C387.996 131.899 388.264 131.156 388.264 130.181V127.733C387.996 128.476 387.539 129.073 386.893 129.524C386.248 129.974 385.468 130.2 384.554 130.2C383.677 130.2 382.891 129.993 382.197 129.578C381.515 129.164 380.979 128.567 380.589 127.788C380.199 127.008 380.004 126.088 380.004 125.028C380.004 123.981 380.199 123.067 380.589 122.287C380.979 121.508 381.515 120.911 382.197 120.496C382.891 120.082 383.677 119.875 384.554 119.875ZM385.194 121.703C384.268 121.703 383.525 122.001 382.964 122.598C382.416 123.183 382.142 123.993 382.142 125.028C382.142 126.064 382.416 126.88 382.964 127.477C383.525 128.062 384.268 128.354 385.194 128.354C385.779 128.354 386.302 128.22 386.765 127.952C387.228 127.672 387.594 127.282 387.862 126.783C388.13 126.283 388.264 125.698 388.264 125.028C388.264 124.37 388.13 123.792 387.862 123.292C387.594 122.781 387.228 122.391 386.765 122.123C386.302 121.843 385.779 121.703 385.194 121.703ZM402.312 120.003V130.072H400.211V127.879C399.955 128.622 399.511 129.201 398.877 129.615C398.244 130.017 397.507 130.218 396.666 130.218C395.496 130.218 394.558 129.84 393.852 129.085C393.145 128.33 392.792 127.252 392.792 125.851V120.003H394.875V125.631C394.875 126.545 395.107 127.252 395.57 127.751C396.033 128.238 396.666 128.482 397.47 128.482C398.298 128.482 398.962 128.214 399.462 127.678C399.961 127.142 400.211 126.362 400.211 125.339V120.003H402.312ZM410.052 128.263V130.072H408.773C407.701 130.072 406.884 129.816 406.324 129.304C405.776 128.78 405.502 127.916 405.502 126.709V121.776H404.058V120.003H405.502V117.5H407.603V120.003H410.034V121.776H407.603V126.746C407.603 127.319 407.707 127.715 407.914 127.934C408.133 128.153 408.511 128.263 409.047 128.263H410.052ZM417.248 128.263V130.072H415.969C414.897 130.072 414.08 129.816 413.52 129.304C412.972 128.78 412.698 127.916 412.698 126.709V121.776H411.254V120.003H412.698V117.5H414.799V120.003H417.229V121.776H414.799V126.746C414.799 127.319 414.903 127.715 415.11 127.934C415.329 128.153 415.707 128.263 416.243 128.263H417.248ZM428.738 124.553C428.738 124.894 428.714 125.193 428.665 125.449H420.917C420.953 126.484 421.24 127.252 421.776 127.751C422.312 128.251 422.976 128.5 423.768 128.5C424.462 128.5 425.047 128.324 425.522 127.97C426.009 127.617 426.308 127.148 426.417 126.563H428.647C428.513 127.27 428.232 127.897 427.806 128.445C427.38 128.994 426.825 129.426 426.143 129.743C425.461 130.047 424.699 130.2 423.859 130.2C422.884 130.2 422.019 129.993 421.264 129.578C420.521 129.164 419.936 128.567 419.51 127.788C419.083 127.008 418.87 126.088 418.87 125.028C418.87 123.981 419.083 123.067 419.51 122.287C419.936 121.508 420.521 120.911 421.264 120.496C422.019 120.082 422.884 119.875 423.859 119.875C424.846 119.875 425.704 120.082 426.435 120.496C427.179 120.899 427.745 121.459 428.135 122.178C428.537 122.884 428.738 123.676 428.738 124.553ZM426.636 124.498C426.661 123.841 426.545 123.292 426.289 122.854C426.046 122.403 425.704 122.074 425.266 121.867C424.84 121.648 424.371 121.538 423.859 121.538C423.043 121.538 422.36 121.788 421.812 122.287C421.264 122.787 420.966 123.524 420.917 124.498H426.636ZM433.015 121.977C433.356 121.319 433.844 120.801 434.477 120.423C435.111 120.034 435.841 119.839 436.67 119.839V122.105H436.049C435.135 122.105 434.398 122.33 433.837 122.781C433.289 123.219 433.015 123.95 433.015 124.973V130.072H430.932V120.003H433.015V121.977ZM456.986 120.003L454.19 130.072H451.888L449.403 122.287L446.881 130.072H444.597L441.801 120.003H443.902L445.821 128.153L448.343 120.003H450.536L453.094 128.153L455.013 120.003H456.986ZM458.295 117.079C458.295 116.726 458.416 116.434 458.66 116.202C458.904 115.971 459.227 115.855 459.629 115.855C460.031 115.855 460.353 115.971 460.597 116.202C460.853 116.434 460.981 116.726 460.981 117.079C460.981 117.433 460.853 117.719 460.597 117.938C460.353 118.157 460.031 118.267 459.629 118.267C459.227 118.267 458.904 118.157 458.66 117.938C458.416 117.719 458.295 117.433 458.295 117.079ZM460.67 120.003V130.072H458.587V120.003H460.67ZM467.412 119.875C468.326 119.875 469.106 120.101 469.751 120.551C470.397 121.002 470.848 121.599 471.103 122.342V116.549H473.205V130.072H471.103V127.733C470.848 128.476 470.397 129.073 469.751 129.524C469.106 129.974 468.326 130.2 467.412 130.2C466.535 130.2 465.749 129.993 465.055 129.578C464.373 129.164 463.837 128.567 463.447 127.788C463.057 127.008 462.862 126.088 462.862 125.028C462.862 123.981 463.057 123.067 463.447 122.287C463.837 121.508 464.373 120.911 465.055 120.496C465.749 120.082 466.535 119.875 467.412 119.875ZM468.052 121.703C467.126 121.703 466.383 122.001 465.822 122.598C465.274 123.183 465 123.993 465 125.028C465 126.064 465.274 126.88 465.822 127.477C466.383 128.062 467.126 128.354 468.052 128.354C468.637 128.354 469.16 128.22 469.623 127.952C470.086 127.672 470.452 127.282 470.72 126.783C470.988 126.283 471.122 125.698 471.122 125.028C471.122 124.37 470.988 123.792 470.72 123.292C470.452 122.781 470.086 122.391 469.623 122.123C469.16 121.843 468.637 121.703 468.052 121.703ZM480.949 128.263V130.072H479.67C478.598 130.072 477.782 129.816 477.221 129.304C476.673 128.78 476.399 127.916 476.399 126.709V121.776H474.956V120.003H476.399V117.5H478.501V120.003H480.931V121.776H478.501V126.746C478.501 127.319 478.604 127.715 478.811 127.934C479.031 128.153 479.408 128.263 479.944 128.263H480.949ZM488.712 119.839C489.881 119.839 490.819 120.216 491.526 120.972C492.232 121.727 492.586 122.805 492.586 124.206V130.072H490.502V124.425C490.502 123.524 490.271 122.829 489.808 122.342C489.345 121.843 488.712 121.593 487.908 121.593C487.079 121.593 486.415 121.861 485.916 122.397C485.416 122.921 485.167 123.694 485.167 124.718V130.072H483.083V116.549H485.167V122.214C485.435 121.459 485.885 120.874 486.519 120.46C487.152 120.046 487.883 119.839 488.712 119.839Z" fill="#212E44"/>
<path d="M330.45 172.804V170.849H334.58V183.75H332.387V172.804H330.45ZM344.021 174.321C343.802 172.883 343.053 172.165 341.773 172.165C340.848 172.165 340.153 172.536 339.69 173.279C339.227 174.01 338.996 175.161 338.996 176.733L339.014 177.354C339.197 176.696 339.593 176.173 340.202 175.783C340.811 175.393 341.53 175.198 342.358 175.198C343.625 175.198 344.618 175.576 345.337 176.331C346.055 177.086 346.415 178.152 346.415 179.529C346.415 180.357 346.25 181.1 345.921 181.758C345.593 182.404 345.099 182.922 344.441 183.311C343.783 183.689 342.973 183.878 342.011 183.878C340.147 183.878 338.868 183.299 338.174 182.142C337.479 180.985 337.132 179.395 337.132 177.373C337.132 175.058 337.504 173.328 338.247 172.183C338.99 171.038 340.208 170.465 341.901 170.465C343.168 170.465 344.137 170.825 344.807 171.543C345.489 172.262 345.885 173.188 345.995 174.321H344.021ZM339.197 179.291C339.197 180.083 339.428 180.747 339.891 181.283C340.354 181.807 341.036 182.069 341.938 182.069C342.705 182.069 343.314 181.843 343.765 181.393C344.228 180.942 344.46 180.315 344.46 179.511C344.46 178.646 344.228 177.982 343.765 177.519C343.302 177.056 342.675 176.824 341.883 176.824C341.164 176.824 340.537 177.038 340.001 177.464C339.465 177.89 339.197 178.499 339.197 179.291ZM354.602 173.553C355.479 173.553 356.259 173.761 356.941 174.175C357.636 174.589 358.178 175.186 358.568 175.966C358.957 176.745 359.152 177.659 359.152 178.707C359.152 179.766 358.957 180.686 358.568 181.466C358.178 182.245 357.636 182.842 356.941 183.257C356.259 183.671 355.479 183.878 354.602 183.878C353.689 183.878 352.909 183.653 352.263 183.202C351.618 182.751 351.167 182.154 350.911 181.411V188.538H348.828V173.681H350.911V176.02C351.167 175.277 351.618 174.68 352.263 174.23C352.909 173.779 353.689 173.553 354.602 173.553ZM353.963 175.381C353.378 175.381 352.854 175.521 352.391 175.801C351.928 176.069 351.563 176.459 351.295 176.971C351.027 177.47 350.893 178.049 350.893 178.707C350.893 179.377 351.027 179.961 351.295 180.461C351.563 180.96 351.928 181.35 352.391 181.63C352.854 181.898 353.378 182.032 353.963 182.032C354.889 182.032 355.632 181.74 356.192 181.155C356.752 180.558 357.033 179.742 357.033 178.707C357.033 177.683 356.752 176.873 356.192 176.276C355.632 175.679 354.889 175.381 353.963 175.381ZM367.299 183.75L364.832 180.187L362.676 183.75H360.355L363.681 178.524L360.318 173.681H362.676L365.088 177.153L367.226 173.681H369.528L366.202 178.761L369.656 183.75H367.299ZM388.342 173.517C389.535 173.517 390.486 173.895 391.192 174.65C391.911 175.405 392.27 176.483 392.27 177.884V183.75H390.187V178.104C390.187 177.226 389.968 176.55 389.529 176.075C389.091 175.588 388.488 175.344 387.72 175.344C386.904 175.344 386.252 175.606 385.765 176.13C385.29 176.642 385.052 177.397 385.052 178.396V183.75H382.969V178.104C382.969 177.226 382.75 176.55 382.311 176.075C381.873 175.588 381.27 175.344 380.502 175.344C379.686 175.344 379.034 175.606 378.547 176.13C378.072 176.642 377.834 177.397 377.834 178.396V183.75H375.751V173.681H377.834V175.783C378.09 175.052 378.517 174.491 379.113 174.102C379.71 173.712 380.411 173.517 381.215 173.517C382.056 173.517 382.78 173.724 383.389 174.138C384.011 174.552 384.462 175.149 384.742 175.929C385.034 175.174 385.503 174.583 386.149 174.156C386.794 173.73 387.525 173.517 388.342 173.517ZM398.924 173.553C399.838 173.553 400.617 173.779 401.263 174.23C401.909 174.68 402.365 175.277 402.633 176.02V173.681H404.717V183.75H402.633V181.411C402.365 182.154 401.909 182.751 401.263 183.202C400.617 183.653 399.838 183.878 398.924 183.878C398.047 183.878 397.261 183.671 396.567 183.257C395.884 182.842 395.348 182.245 394.959 181.466C394.569 180.686 394.374 179.766 394.374 178.707C394.374 177.659 394.569 176.745 394.959 175.966C395.348 175.186 395.884 174.589 396.567 174.175C397.261 173.761 398.047 173.553 398.924 173.553ZM399.563 175.381C398.638 175.381 397.895 175.679 397.334 176.276C396.786 176.861 396.512 177.671 396.512 178.707C396.512 179.742 396.786 180.558 397.334 181.155C397.895 181.74 398.638 182.032 399.563 182.032C400.148 182.032 400.672 181.898 401.135 181.63C401.598 181.35 401.963 180.96 402.231 180.461C402.499 179.961 402.633 179.377 402.633 178.707C402.633 178.049 402.499 177.47 402.231 176.971C401.963 176.459 401.598 176.069 401.135 175.801C400.672 175.521 400.148 175.381 399.563 175.381ZM409.482 175.655C409.823 174.997 410.311 174.479 410.944 174.102C411.578 173.712 412.309 173.517 413.137 173.517V175.783H412.516C411.602 175.783 410.865 176.008 410.305 176.459C409.756 176.897 409.482 177.628 409.482 178.652V183.75H407.399V173.681H409.482V175.655ZM418.919 173.553C419.833 173.553 420.612 173.779 421.258 174.23C421.904 174.68 422.361 175.277 422.629 176.02V173.681H424.712V183.86C424.712 184.798 424.517 185.626 424.127 186.345C423.749 187.076 423.201 187.648 422.482 188.063C421.764 188.477 420.911 188.684 419.924 188.684C418.511 188.684 417.366 188.349 416.489 187.679C415.624 187.009 415.082 186.101 414.862 184.956H416.927C417.098 185.553 417.427 186.016 417.914 186.345C418.401 186.686 419.023 186.856 419.778 186.856C420.606 186.856 421.289 186.601 421.825 186.089C422.361 185.577 422.629 184.834 422.629 183.86V181.411C422.361 182.154 421.904 182.751 421.258 183.202C420.612 183.653 419.833 183.878 418.919 183.878C418.042 183.878 417.256 183.671 416.562 183.257C415.88 182.842 415.344 182.245 414.954 181.466C414.564 180.686 414.369 179.766 414.369 178.707C414.369 177.659 414.564 176.745 414.954 175.966C415.344 175.186 415.88 174.589 416.562 174.175C417.256 173.761 418.042 173.553 418.919 173.553ZM419.559 175.381C418.633 175.381 417.89 175.679 417.329 176.276C416.781 176.861 416.507 177.671 416.507 178.707C416.507 179.742 416.781 180.558 417.329 181.155C417.89 181.74 418.633 182.032 419.559 182.032C420.143 182.032 420.667 181.898 421.13 181.63C421.593 181.35 421.959 180.96 422.227 180.461C422.495 179.961 422.629 179.377 422.629 178.707C422.629 178.049 422.495 177.47 422.227 176.971C421.959 176.459 421.593 176.069 421.13 175.801C420.667 175.521 420.143 175.381 419.559 175.381ZM427.102 170.758C427.102 170.404 427.224 170.112 427.467 169.88C427.711 169.649 428.034 169.533 428.436 169.533C428.838 169.533 429.161 169.649 429.404 169.88C429.66 170.112 429.788 170.404 429.788 170.758C429.788 171.111 429.66 171.397 429.404 171.616C429.161 171.836 428.838 171.945 428.436 171.945C428.034 171.945 427.711 171.836 427.467 171.616C427.224 171.397 427.102 171.111 427.102 170.758ZM429.478 173.681V183.75H427.394V173.681H429.478ZM437.809 173.517C438.979 173.517 439.917 173.895 440.623 174.65C441.33 175.405 441.683 176.483 441.683 177.884V183.75H439.6V178.104C439.6 177.202 439.369 176.508 438.906 176.02C438.443 175.521 437.809 175.271 437.005 175.271C436.177 175.271 435.513 175.539 435.014 176.075C434.514 176.599 434.264 177.373 434.264 178.396V183.75H432.181V173.681H434.264V175.892C434.532 175.137 434.983 174.552 435.617 174.138C436.25 173.724 436.981 173.517 437.809 173.517Z" fill="#212E44"/>
<path d="M330.852 234.651V232.896L337.266 224.418H339.496V232.823H341.305V234.651H339.496V237.428H337.394V234.651H330.852ZM337.541 226.903L333.009 232.823H337.541V226.903ZM353.478 224.399C355.061 224.399 356.377 224.801 357.425 225.605C358.472 226.409 359.179 227.5 359.544 228.876H357.333C357.029 228.097 356.541 227.481 355.871 227.031C355.214 226.568 354.403 226.336 353.441 226.336C352.674 226.336 351.985 226.525 351.376 226.903C350.779 227.28 350.304 227.822 349.951 228.529C349.61 229.223 349.439 230.04 349.439 230.978C349.439 231.904 349.61 232.72 349.951 233.426C350.304 234.121 350.779 234.657 351.376 235.034C351.985 235.412 352.674 235.601 353.441 235.601C354.403 235.601 355.214 235.376 355.871 234.925C356.541 234.462 357.029 233.847 357.333 233.079H359.544C359.179 234.456 358.472 235.546 357.425 236.35C356.377 237.142 355.061 237.538 353.478 237.538C352.259 237.538 351.181 237.264 350.243 236.716C349.305 236.155 348.58 235.382 348.069 234.395C347.557 233.396 347.301 232.257 347.301 230.978C347.301 229.699 347.557 228.566 348.069 227.579C348.58 226.58 349.305 225.8 350.243 225.24C351.181 224.679 352.259 224.399 353.478 224.399ZM366.41 227.232C367.385 227.232 368.262 227.439 369.042 227.853C369.821 228.267 370.431 228.864 370.869 229.644C371.308 230.423 371.527 231.337 371.527 232.385C371.527 233.445 371.308 234.364 370.869 235.144C370.431 235.924 369.821 236.521 369.042 236.935C368.262 237.349 367.385 237.556 366.41 237.556C365.436 237.556 364.559 237.349 363.779 236.935C363.012 236.521 362.402 235.924 361.952 235.144C361.513 234.352 361.294 233.432 361.294 232.385C361.294 231.337 361.513 230.423 361.952 229.644C362.402 228.864 363.012 228.267 363.779 227.853C364.559 227.439 365.436 227.232 366.41 227.232ZM366.41 229.041C365.874 229.041 365.381 229.163 364.93 229.406C364.48 229.65 364.114 230.027 363.834 230.539C363.566 231.039 363.432 231.654 363.432 232.385C363.432 233.128 363.566 233.749 363.834 234.249C364.114 234.748 364.48 235.12 364.93 235.363C365.381 235.607 365.874 235.729 366.41 235.729C366.946 235.729 367.44 235.607 367.891 235.363C368.341 235.12 368.701 234.748 368.969 234.249C369.249 233.749 369.389 233.128 369.389 232.385C369.389 231.654 369.249 231.039 368.969 230.539C368.701 230.027 368.341 229.65 367.891 229.406C367.44 229.163 366.946 229.041 366.41 229.041ZM375.796 223.906V237.428H373.713V223.906H375.796ZM387.782 227.36V237.428H385.681V235.235C385.425 235.979 384.98 236.557 384.347 236.971C383.713 237.373 382.976 237.574 382.136 237.574C380.966 237.574 380.028 237.197 379.322 236.441C378.615 235.686 378.262 234.608 378.262 233.207V227.36H380.345V232.988C380.345 233.901 380.576 234.608 381.039 235.107C381.502 235.595 382.136 235.838 382.94 235.838C383.768 235.838 384.432 235.57 384.932 235.034C385.431 234.498 385.681 233.719 385.681 232.695V227.36H387.782ZM403.05 227.195C404.244 227.195 405.194 227.573 405.901 228.328C406.62 229.083 406.979 230.161 406.979 231.562V237.428H404.896V231.782C404.896 230.905 404.677 230.228 404.238 229.753C403.799 229.266 403.196 229.022 402.429 229.022C401.613 229.022 400.961 229.284 400.474 229.808C399.999 230.32 399.761 231.075 399.761 232.074V237.428H397.678V231.782C397.678 230.905 397.459 230.228 397.02 229.753C396.581 229.266 395.978 229.022 395.211 229.022C394.395 229.022 393.743 229.284 393.256 229.808C392.781 230.32 392.543 231.075 392.543 232.074V237.428H390.46V227.36H392.543V229.461C392.799 228.73 393.225 228.17 393.822 227.78C394.419 227.39 395.12 227.195 395.924 227.195C396.764 227.195 397.489 227.402 398.098 227.816C398.719 228.231 399.17 228.828 399.45 229.607C399.743 228.852 400.212 228.261 400.857 227.835C401.503 227.408 402.234 227.195 403.05 227.195ZM415.222 227.195C416.392 227.195 417.33 227.573 418.037 228.328C418.743 229.083 419.096 230.161 419.096 231.562V237.428H417.013V231.782C417.013 230.88 416.782 230.186 416.319 229.699C415.856 229.199 415.222 228.949 414.418 228.949C413.59 228.949 412.926 229.217 412.427 229.753C411.927 230.277 411.677 231.051 411.677 232.074V237.428H409.594V227.36H411.677V229.571C411.945 228.815 412.396 228.231 413.03 227.816C413.663 227.402 414.394 227.195 415.222 227.195ZM425.023 227.232C426.204 227.232 427.149 227.536 427.855 228.145C428.574 228.742 429.013 229.546 429.171 230.557H427.197C427.112 230.009 426.875 229.571 426.485 229.242C426.107 228.901 425.601 228.73 424.968 228.73C424.444 228.73 424.036 228.858 423.744 229.114C423.463 229.357 423.323 229.692 423.323 230.119C423.323 230.436 423.427 230.691 423.634 230.886C423.841 231.081 424.097 231.234 424.402 231.343C424.718 231.453 425.163 231.575 425.735 231.709C426.491 231.879 427.1 232.056 427.563 232.239C428.038 232.421 428.44 232.714 428.769 233.116C429.11 233.506 429.281 234.042 429.281 234.724C429.281 235.564 428.958 236.247 428.312 236.77C427.679 237.294 426.82 237.556 425.735 237.556C424.481 237.556 423.463 237.264 422.684 236.679C421.916 236.094 421.453 235.278 421.295 234.23H423.323C423.384 234.779 423.628 235.223 424.054 235.564C424.481 235.905 425.041 236.076 425.735 236.076C426.235 236.076 426.625 235.948 426.905 235.692C427.197 235.424 427.344 235.089 427.344 234.687C427.344 234.334 427.234 234.054 427.015 233.847C426.795 233.64 426.521 233.481 426.192 233.372C425.863 233.25 425.413 233.128 424.84 233.006C424.109 232.835 423.512 232.665 423.049 232.494C422.599 232.324 422.209 232.05 421.88 231.672C421.563 231.282 421.405 230.758 421.405 230.101C421.405 229.248 421.721 228.56 422.355 228.036C423.001 227.5 423.89 227.232 425.023 227.232Z" fill="#212E44"/>
<path d="M331.492 281.202C331.492 280.569 331.663 279.99 332.004 279.466C332.345 278.942 332.85 278.522 333.52 278.205C334.203 277.889 335.019 277.73 335.969 277.73C336.919 277.73 337.729 277.889 338.399 278.205C339.082 278.522 339.593 278.942 339.934 279.466C340.288 279.99 340.464 280.569 340.464 281.202C340.464 281.909 340.275 282.518 339.898 283.03C339.532 283.541 338.984 283.913 338.253 284.144C339.069 284.4 339.697 284.814 340.135 285.387C340.574 285.947 340.793 286.636 340.793 287.452C340.793 288.707 340.349 289.687 339.459 290.394C338.57 291.088 337.407 291.435 335.969 291.435C334.532 291.435 333.368 291.088 332.479 290.394C331.602 289.687 331.163 288.707 331.163 287.452C331.163 286.636 331.382 285.947 331.821 285.387C332.26 284.814 332.887 284.4 333.703 284.144C332.972 283.913 332.418 283.541 332.04 283.03C331.675 282.518 331.492 281.909 331.492 281.202ZM333.557 281.531C333.557 282.189 333.77 282.701 334.197 283.066C334.635 283.419 335.226 283.596 335.969 283.596C336.712 283.596 337.303 283.419 337.742 283.066C338.18 282.701 338.399 282.189 338.399 281.531C338.399 280.873 338.174 280.362 337.723 279.996C337.285 279.631 336.7 279.448 335.969 279.448C335.238 279.448 334.653 279.631 334.215 279.996C333.776 280.362 333.557 280.873 333.557 281.531ZM333.191 287.342C333.191 288.085 333.441 288.67 333.941 289.096C334.44 289.511 335.116 289.718 335.969 289.718C336.822 289.718 337.498 289.511 337.997 289.096C338.497 288.67 338.747 288.085 338.747 287.342C338.747 286.587 338.485 286.02 337.961 285.643C337.449 285.253 336.785 285.058 335.969 285.058C335.165 285.058 334.501 285.253 333.977 285.643C333.453 286.033 333.191 286.599 333.191 287.342ZM349.733 286.1V291.106H347.65V278.205H352.036C353.522 278.205 354.637 278.559 355.38 279.265C356.135 279.972 356.513 280.94 356.513 282.171C356.513 283.389 356.129 284.351 355.361 285.058C354.594 285.752 353.485 286.1 352.036 286.1H349.733ZM351.816 284.4C353.534 284.4 354.393 283.657 354.393 282.171C354.393 281.44 354.186 280.885 353.772 280.508C353.37 280.118 352.718 279.923 351.816 279.923H349.733V284.4H351.816ZM363.127 280.91C364.102 280.91 364.979 281.117 365.758 281.531C366.538 281.945 367.147 282.542 367.586 283.322C368.024 284.102 368.244 285.015 368.244 286.063C368.244 287.123 368.024 288.043 367.586 288.822C367.147 289.602 366.538 290.199 365.758 290.613C364.979 291.027 364.102 291.234 363.127 291.234C362.152 291.234 361.275 291.027 360.496 290.613C359.728 290.199 359.119 289.602 358.668 288.822C358.23 288.03 358.01 287.111 358.01 286.063C358.01 285.015 358.23 284.102 358.668 283.322C359.119 282.542 359.728 281.945 360.496 281.531C361.275 281.117 362.152 280.91 363.127 280.91ZM363.127 282.719C362.591 282.719 362.098 282.841 361.647 283.084C361.196 283.328 360.831 283.706 360.55 284.217C360.282 284.717 360.148 285.332 360.148 286.063C360.148 286.806 360.282 287.427 360.55 287.927C360.831 288.426 361.196 288.798 361.647 289.042C362.098 289.285 362.591 289.407 363.127 289.407C363.663 289.407 364.156 289.285 364.607 289.042C365.058 288.798 365.417 288.426 365.685 287.927C365.965 287.427 366.106 286.806 366.106 286.063C366.106 285.332 365.965 284.717 365.685 284.217C365.417 283.706 365.058 283.328 364.607 283.084C364.156 282.841 363.663 282.719 363.127 282.719ZM370.137 278.114C370.137 277.761 370.258 277.468 370.502 277.237C370.746 277.005 371.069 276.89 371.471 276.89C371.873 276.89 372.195 277.005 372.439 277.237C372.695 277.468 372.823 277.761 372.823 278.114C372.823 278.467 372.695 278.754 372.439 278.973C372.195 279.192 371.873 279.302 371.471 279.302C371.069 279.302 370.746 279.192 370.502 278.973C370.258 278.754 370.137 278.467 370.137 278.114ZM372.512 281.038V291.106H370.429V281.038H372.512ZM380.844 280.873C382.014 280.873 382.952 281.251 383.658 282.006C384.365 282.762 384.718 283.84 384.718 285.241V291.106H382.635V285.46C382.635 284.558 382.403 283.864 381.94 283.377C381.478 282.877 380.844 282.628 380.04 282.628C379.212 282.628 378.548 282.896 378.048 283.432C377.549 283.955 377.299 284.729 377.299 285.752V291.106H375.216V281.038H377.299V283.249C377.567 282.494 378.018 281.909 378.651 281.495C379.285 281.08 380.016 280.873 380.844 280.873ZM392.399 289.297V291.106H391.12C390.048 291.106 389.231 290.851 388.671 290.339C388.123 289.815 387.849 288.95 387.849 287.744V282.81H386.405V281.038H387.849V278.534H389.95V281.038H392.38V282.81H389.95V287.781C389.95 288.353 390.054 288.749 390.261 288.968C390.48 289.188 390.858 289.297 391.394 289.297H392.399ZM404.901 278.096C406.436 278.096 407.715 278.473 408.738 279.229C409.761 279.984 410.438 281.013 410.767 282.317H408.574C408.294 281.623 407.831 281.068 407.185 280.654C406.551 280.24 405.796 280.033 404.919 280.033C404.115 280.033 403.39 280.222 402.744 280.599C402.111 280.977 401.612 281.513 401.246 282.207C400.893 282.902 400.716 283.718 400.716 284.656C400.716 285.643 400.899 286.489 401.264 287.196C401.63 287.903 402.141 288.445 402.799 288.822C403.469 289.188 404.243 289.37 405.12 289.37C406.192 289.37 407.112 289.042 407.879 288.384C408.647 287.714 409.11 286.8 409.268 285.643H404.535V284.108H411.022V286.1C410.876 287.05 410.535 287.915 409.999 288.694C409.475 289.462 408.775 290.077 407.898 290.54C407.033 291.003 406.04 291.234 404.919 291.234C403.664 291.234 402.556 290.954 401.593 290.394C400.631 289.833 399.888 289.06 399.364 288.073C398.84 287.074 398.578 285.935 398.578 284.656C398.578 283.377 398.84 282.244 399.364 281.257C399.888 280.258 400.625 279.485 401.575 278.936C402.537 278.376 403.646 278.096 404.901 278.096ZM415.398 283.011C415.739 282.353 416.226 281.836 416.86 281.458C417.493 281.068 418.224 280.873 419.052 280.873V283.139H418.431C417.517 283.139 416.78 283.365 416.22 283.815C415.672 284.254 415.398 284.985 415.398 286.008V291.106H413.315V281.038H415.398V283.011ZM420.504 278.114C420.504 277.761 420.625 277.468 420.869 277.237C421.113 277.005 421.436 276.89 421.838 276.89C422.24 276.89 422.562 277.005 422.806 277.237C423.062 277.468 423.19 277.761 423.19 278.114C423.19 278.467 423.062 278.754 422.806 278.973C422.562 279.192 422.24 279.302 421.838 279.302C421.436 279.302 421.113 279.192 420.869 278.973C420.625 278.754 420.504 278.467 420.504 278.114ZM422.879 281.038V291.106H420.796V281.038H422.879ZM429.621 280.91C430.535 280.91 431.314 281.135 431.96 281.586C432.606 282.037 433.057 282.634 433.312 283.377V277.584H435.414V291.106H433.312V288.767C433.057 289.511 432.606 290.107 431.96 290.558C431.314 291.009 430.535 291.234 429.621 291.234C428.744 291.234 427.958 291.027 427.264 290.613C426.582 290.199 426.046 289.602 425.656 288.822C425.266 288.043 425.071 287.123 425.071 286.063C425.071 285.015 425.266 284.102 425.656 283.322C426.046 282.542 426.582 281.945 427.264 281.531C427.958 281.117 428.744 280.91 429.621 280.91ZM430.261 282.737C429.335 282.737 428.592 283.036 428.031 283.633C427.483 284.217 427.209 285.027 427.209 286.063C427.209 287.098 427.483 287.915 428.031 288.512C428.592 289.096 429.335 289.389 430.261 289.389C430.845 289.389 431.369 289.255 431.832 288.987C432.295 288.707 432.661 288.317 432.929 287.817C433.197 287.318 433.331 286.733 433.331 286.063C433.331 285.405 433.197 284.826 432.929 284.327C432.661 283.815 432.295 283.426 431.832 283.157C431.369 282.877 430.845 282.737 430.261 282.737Z" fill="#212E44"/>
<defs>
<filter id="filter0_d_980_2338" x="0.147457" y="0.431638" width="248.977" height="483.675" filterUnits="userSpaceOnUse" color-interpolation-filters="sRGB">
<feFlood flood-opacity="0" result="BackgroundImageFix"/>
<feColorMatrix in="SourceAlpha" type="matrix" values="0 0 0 0 0 0 0 0 0 0 0 0 0 0 0 0 0 0 127 0" result="hardAlpha"/>
<feOffset dy="2.28418"/>
<feGaussianBlur stdDeviation="3.42627"/>
<feComposite in2="hardAlpha" operator="out"/>
<feColorMatrix type="matrix" values="0 0 0 0 0 0 0 0 0 0 0 0 0 0 0 0 0 0 0.08 0"/>
<feBlend mode="normal" in2="BackgroundImageFix" result="effect1_dropShadow_980_2338"/>
<feBlend mode="normal" in="SourceGraphic" in2="effect1_dropShadow_980_2338" result="shape"/>
</filter>
<clipPath id="clip0_980_2338">
<rect x="7" y="5" width="235.271" height="469.97" rx="22.8418" fill="white"/>
</clipPath>
</defs>
</svg>
