<svg width="111" height="27" viewBox="0 0 111 27" fill="none" xmlns="http://www.w3.org/2000/svg">
<path d="M5.68 7.58C6.46667 7.58 7.07333 7.66667 7.5 7.84C7.92667 8 8.29333 8.17333 8.6 8.36C8.76 8.45333 8.88667 8.52667 8.98 8.58C9.08667 8.62 9.18667 8.64 9.28 8.64C9.41333 8.64 9.50667 8.56667 9.56 8.42C9.62667 8.27333 9.68 8.05333 9.72 7.76H10.18C10.1667 8.01333 10.1467 8.32 10.12 8.68C10.1067 9.02667 10.0933 9.48667 10.08 10.06C10.08 10.6333 10.08 11.3867 10.08 12.32H9.62C9.56667 11.6267 9.40667 10.9533 9.14 10.3C8.87333 9.64667 8.49333 9.11333 8 8.7C7.52 8.27333 6.92667 8.06 6.22 8.06C5.58 8.06 5.05333 8.24 4.64 8.6C4.22667 8.96 4.02 9.46 4.02 10.1C4.02 10.6333 4.15333 11.0933 4.42 11.48C4.68667 11.8533 5.07333 12.22 5.58 12.58C6.1 12.94 6.72667 13.3733 7.46 13.88C8.1 14.2933 8.67333 14.7067 9.18 15.12C9.68667 15.5333 10.0933 16 10.4 16.52C10.7067 17.04 10.86 17.66 10.86 18.38C10.86 19.26 10.6267 19.9867 10.16 20.56C9.70667 21.1333 9.10667 21.5667 8.36 21.86C7.61333 22.14 6.79333 22.28 5.9 22.28C5.07333 22.28 4.41333 22.2 3.92 22.04C3.42667 21.88 3.01333 21.7133 2.68 21.54C2.38667 21.3533 2.16 21.26 2 21.26C1.86667 21.26 1.76667 21.3333 1.7 21.48C1.64667 21.6267 1.6 21.8467 1.56 22.14H1.1C1.12667 21.82 1.14 21.4467 1.14 21.02C1.15333 20.5933 1.16 20.04 1.16 19.36C1.17333 18.6667 1.18 17.7933 1.18 16.74H1.64C1.69333 17.62 1.84 18.4467 2.08 19.22C2.33333 19.98 2.71333 20.5933 3.22 21.06C3.74 21.5267 4.42667 21.76 5.28 21.76C5.74667 21.76 6.16 21.68 6.52 21.52C6.89333 21.3467 7.19333 21.0933 7.42 20.76C7.64667 20.4267 7.76 20.0133 7.76 19.52C7.76 18.96 7.62667 18.4733 7.36 18.06C7.10667 17.6467 6.75333 17.26 6.3 16.9C5.86 16.54 5.34667 16.1733 4.76 15.8C4.13333 15.3867 3.54667 14.9733 3 14.56C2.45333 14.1467 2.01333 13.6733 1.68 13.14C1.36 12.6067 1.2 11.9733 1.2 11.24C1.2 10.4 1.40667 9.71333 1.82 9.18C2.24667 8.63333 2.8 8.23333 3.48 7.98C4.17333 7.71333 4.90667 7.58 5.68 7.58ZM22.1197 11.44V19.82C22.1197 20.42 22.213 20.8667 22.3997 21.16C22.5864 21.44 22.9197 21.58 23.3997 21.58V22C22.9864 21.96 22.573 21.94 22.1597 21.94C21.5997 21.94 21.0797 21.96 20.5997 22C20.1197 22.04 19.6664 22.1133 19.2397 22.22V20.42C18.9197 21.0867 18.473 21.5667 17.8997 21.86C17.3397 22.14 16.713 22.28 16.0197 22.28C15.4597 22.28 15.0064 22.2067 14.6597 22.06C14.313 21.9133 14.0397 21.7267 13.8397 21.5C13.613 21.2467 13.453 20.9133 13.3597 20.5C13.2664 20.0867 13.2197 19.5533 13.2197 18.9V13.84C13.2197 13.24 13.1264 12.8 12.9397 12.52C12.7664 12.2267 12.433 12.08 11.9397 12.08V11.66C12.3664 11.7 12.7797 11.72 13.1797 11.72C13.7397 11.72 14.2597 11.7 14.7397 11.66C15.233 11.6067 15.6864 11.5333 16.0997 11.44V19.72C16.0997 20.0533 16.1264 20.3467 16.1797 20.6C16.2464 20.8533 16.3664 21.0533 16.5397 21.2C16.713 21.3333 16.9664 21.4 17.2997 21.4C17.6597 21.4 17.9797 21.3 18.2597 21.1C18.553 20.9 18.7864 20.6267 18.9597 20.28C19.1464 19.92 19.2397 19.52 19.2397 19.08V13.84C19.2397 13.24 19.1464 12.8 18.9597 12.52C18.7864 12.2267 18.453 12.08 17.9597 12.08V11.66C18.3864 11.7 18.7997 11.72 19.1997 11.72C19.7597 11.72 20.2797 11.7 20.7597 11.66C21.253 11.6067 21.7064 11.5333 22.1197 11.44ZM31.1686 11.38C31.5953 11.38 31.9419 11.4733 32.2086 11.66C32.4753 11.8333 32.6686 12.06 32.7886 12.34C32.9219 12.62 32.9886 12.9133 32.9886 13.22C32.9886 13.7133 32.8419 14.12 32.5486 14.44C32.2686 14.7467 31.8953 14.9 31.4286 14.9C30.9619 14.9 30.5953 14.7867 30.3286 14.56C30.0753 14.32 29.9486 14.0067 29.9486 13.62C29.9486 13.2467 30.0286 12.94 30.1886 12.7C30.3619 12.4467 30.5753 12.2333 30.8286 12.06C30.6419 12.0067 30.4553 12.0133 30.2686 12.08C30.0153 12.12 29.7753 12.2267 29.5486 12.4C29.3219 12.56 29.1286 12.7667 28.9686 13.02C28.8086 13.26 28.6819 13.5267 28.5886 13.82C28.4953 14.1 28.4486 14.3733 28.4486 14.64V19.94C28.4486 20.58 28.6019 21.0133 28.9086 21.24C29.2286 21.4667 29.7019 21.58 30.3286 21.58V22C30.0219 21.9867 29.5753 21.9733 28.9886 21.96C28.4019 21.9333 27.7886 21.92 27.1486 21.92C26.6153 21.92 26.0753 21.9333 25.5286 21.96C24.9819 21.9733 24.5686 21.9867 24.2886 22V21.58C24.7553 21.58 25.0819 21.48 25.2686 21.28C25.4686 21.08 25.5686 20.7 25.5686 20.14V13.84C25.5686 13.24 25.4753 12.8 25.2886 12.52C25.1153 12.2267 24.7819 12.08 24.2886 12.08V11.66C24.7153 11.7 25.1286 11.72 25.5286 11.72C26.0886 11.72 26.6086 11.7 27.0886 11.66C27.5819 11.6067 28.0353 11.5333 28.4486 11.44V13.3C28.6086 12.94 28.8219 12.6133 29.0886 12.32C29.3553 12.0267 29.6619 11.8 30.0086 11.64C30.3553 11.4667 30.7419 11.38 31.1686 11.38ZM36.3845 22.14C35.7845 22.14 35.2845 22.0267 34.8845 21.8C34.4845 21.5733 34.1912 21.2733 34.0045 20.9C33.8179 20.5133 33.7245 20.0933 33.7245 19.64C33.7245 19.0667 33.8512 18.6 34.1045 18.24C34.3712 17.88 34.7112 17.5867 35.1245 17.36C35.5379 17.1333 35.9712 16.9467 36.4245 16.8C36.8912 16.6533 37.3312 16.5133 37.7445 16.38C38.1712 16.2333 38.5112 16.0667 38.7645 15.88C39.0312 15.68 39.1645 15.4267 39.1645 15.12V13.56C39.1645 13.2133 39.1045 12.9067 38.9845 12.64C38.8779 12.36 38.7045 12.1467 38.4645 12C38.2379 11.8533 37.9379 11.78 37.5645 11.78C37.2979 11.78 37.0312 11.82 36.7645 11.9C36.4979 11.9667 36.2779 12.0867 36.1045 12.26C36.4779 12.3933 36.7645 12.6 36.9645 12.88C37.1779 13.1467 37.2845 13.4533 37.2845 13.8C37.2845 14.2533 37.1245 14.6133 36.8045 14.88C36.4979 15.1467 36.1312 15.28 35.7045 15.28C35.2245 15.28 34.8579 15.1333 34.6045 14.84C34.3645 14.5333 34.2445 14.1667 34.2445 13.74C34.2445 13.3533 34.3379 13.0333 34.5245 12.78C34.7245 12.5267 34.9979 12.2867 35.3445 12.06C35.7179 11.8467 36.1645 11.68 36.6845 11.56C37.2179 11.44 37.7912 11.38 38.4045 11.38C39.0179 11.38 39.5712 11.4467 40.0645 11.58C40.5579 11.7 40.9712 11.9267 41.3045 12.26C41.6112 12.5667 41.8112 12.9467 41.9045 13.4C41.9979 13.84 42.0445 14.4 42.0445 15.08V20.52C42.0445 20.8533 42.0779 21.0867 42.1445 21.22C42.2112 21.34 42.3245 21.4 42.4845 21.4C42.6045 21.4 42.7179 21.3667 42.8245 21.3C42.9445 21.2333 43.0712 21.1533 43.2045 21.06L43.4045 21.4C43.1245 21.64 42.7979 21.8267 42.4245 21.96C42.0645 22.08 41.6579 22.14 41.2045 22.14C40.7112 22.14 40.3179 22.0733 40.0245 21.94C39.7312 21.7933 39.5179 21.6 39.3845 21.36C39.2645 21.12 39.2045 20.84 39.2045 20.52C38.8845 21.0267 38.4979 21.4267 38.0445 21.72C37.5912 22 37.0379 22.14 36.3845 22.14ZM37.8045 20.86C38.0712 20.86 38.3112 20.8 38.5245 20.68C38.7512 20.5467 38.9645 20.3333 39.1645 20.04V15.94C39.0445 16.14 38.8779 16.32 38.6645 16.48C38.4512 16.64 38.2245 16.8067 37.9845 16.98C37.7445 17.14 37.5112 17.32 37.2845 17.52C37.0712 17.72 36.8979 17.9667 36.7645 18.26C36.6312 18.5533 36.5645 18.9067 36.5645 19.32C36.5645 19.84 36.6779 20.2267 36.9045 20.48C37.1312 20.7333 37.4312 20.86 37.8045 20.86ZM43.0361 25.76V25.4C43.6894 25.3867 44.2094 25.1267 44.5961 24.62C44.9828 24.1267 45.1761 23.3733 45.1761 22.36V13.84C45.1761 13.24 45.0828 12.8 44.8961 12.52C44.7094 12.2267 44.3761 12.08 43.8961 12.08V11.66C44.3228 11.7 44.7361 11.72 45.1361 11.72C45.6828 11.72 46.2028 11.7 46.6961 11.66C47.1894 11.6067 47.6428 11.5333 48.0561 11.44V20.12C48.0561 20.8533 48.0094 21.5 47.9161 22.06C47.8228 22.62 47.6694 23.1133 47.4561 23.54C47.2428 23.9667 46.9628 24.3467 46.6161 24.68C46.2828 25 45.8228 25.26 45.2361 25.46C44.6628 25.66 43.9294 25.76 43.0361 25.76ZM46.3961 6.5C46.9561 6.5 47.3961 6.64 47.7161 6.92C48.0494 7.18667 48.2161 7.56 48.2161 8.04C48.2161 8.52 48.0494 8.9 47.7161 9.18C47.3961 9.44667 46.9561 9.58 46.3961 9.58C45.8361 9.58 45.3894 9.44667 45.0561 9.18C44.7361 8.9 44.5761 8.52 44.5761 8.04C44.5761 7.56 44.7361 7.18667 45.0561 6.92C45.3894 6.64 45.8361 6.5 46.3961 6.5ZM54.7816 7.84C55.1149 7.85333 55.5616 7.86667 56.1216 7.88C56.6949 7.89333 57.2616 7.9 57.8216 7.9C58.4616 7.9 59.0816 7.89333 59.6816 7.88C60.2816 7.86667 60.7082 7.86 60.9616 7.86C62.8149 7.86 64.2016 8.22667 65.1216 8.96C66.0416 9.69333 66.5016 10.64 66.5016 11.8C66.5016 12.28 66.4082 12.7867 66.2216 13.32C66.0349 13.84 65.7149 14.3267 65.2616 14.78C64.8216 15.22 64.2149 15.58 63.4416 15.86C62.6682 16.14 61.6949 16.28 60.5216 16.28H58.4816V15.88H60.3216C61.1082 15.88 61.7016 15.7 62.1016 15.34C62.5149 14.98 62.7949 14.5067 62.9416 13.92C63.1016 13.3333 63.1816 12.7 63.1816 12.02C63.1816 10.7533 62.9949 9.80667 62.6216 9.18C62.2482 8.55333 61.6082 8.24 60.7016 8.24C60.1816 8.24 59.8416 8.35333 59.6816 8.58C59.5349 8.80667 59.4616 9.26667 59.4616 9.96V19.76C59.4616 20.28 59.5149 20.6667 59.6216 20.92C59.7282 21.1733 59.9349 21.34 60.2416 21.42C60.5482 21.5 61.0016 21.5467 61.6016 21.56V22C61.1882 21.9867 60.6549 21.9733 60.0016 21.96C59.3482 21.9467 58.6616 21.94 57.9416 21.94C57.3682 21.94 56.8082 21.9467 56.2616 21.96C55.7149 21.9733 55.2216 21.9867 54.7816 22V21.6C55.2082 21.5733 55.5282 21.52 55.7416 21.44C55.9549 21.36 56.0949 21.2 56.1616 20.96C56.2416 20.72 56.2816 20.36 56.2816 19.88V9.96C56.2816 9.46667 56.2416 9.10667 56.1616 8.88C56.0949 8.64 55.9482 8.48 55.7216 8.4C55.5082 8.30667 55.1949 8.25333 54.7816 8.24V7.84ZM77.3541 11.44V19.82C77.3541 20.42 77.4474 20.8667 77.6341 21.16C77.8207 21.44 78.1541 21.58 78.6341 21.58V22C78.2207 21.96 77.8074 21.94 77.3941 21.94C76.8341 21.94 76.3141 21.96 75.8341 22C75.3541 22.04 74.9007 22.1133 74.4741 22.22V20.42C74.1541 21.0867 73.7074 21.5667 73.1341 21.86C72.5741 22.14 71.9474 22.28 71.2541 22.28C70.6941 22.28 70.2407 22.2067 69.8941 22.06C69.5474 21.9133 69.2741 21.7267 69.0741 21.5C68.8474 21.2467 68.6874 20.9133 68.5941 20.5C68.5007 20.0867 68.4541 19.5533 68.4541 18.9V13.84C68.4541 13.24 68.3607 12.8 68.1741 12.52C68.0007 12.2267 67.6674 12.08 67.1741 12.08V11.66C67.6007 11.7 68.0141 11.72 68.4141 11.72C68.9741 11.72 69.4941 11.7 69.9741 11.66C70.4674 11.6067 70.9207 11.5333 71.3341 11.44V19.72C71.3341 20.0533 71.3607 20.3467 71.4141 20.6C71.4807 20.8533 71.6007 21.0533 71.7741 21.2C71.9474 21.3333 72.2007 21.4 72.5341 21.4C72.8941 21.4 73.2141 21.3 73.4941 21.1C73.7874 20.9 74.0207 20.6267 74.1941 20.28C74.3807 19.92 74.4741 19.52 74.4741 19.08V13.84C74.4741 13.24 74.3807 12.8 74.1941 12.52C74.0207 12.2267 73.6874 12.08 73.1941 12.08V11.66C73.6207 11.7 74.0341 11.72 74.4341 11.72C74.9941 11.72 75.5141 11.7 75.9941 11.66C76.4874 11.6067 76.9407 11.5333 77.3541 11.44ZM78.583 25.76V25.4C79.2363 25.3867 79.7563 25.1267 80.143 24.62C80.5296 24.1267 80.723 23.3733 80.723 22.36V13.84C80.723 13.24 80.6296 12.8 80.443 12.52C80.2563 12.2267 79.923 12.08 79.443 12.08V11.66C79.8696 11.7 80.283 11.72 80.683 11.72C81.2296 11.72 81.7496 11.7 82.243 11.66C82.7363 11.6067 83.1896 11.5333 83.603 11.44V20.12C83.603 20.8533 83.5563 21.5 83.463 22.06C83.3696 22.62 83.2163 23.1133 83.003 23.54C82.7896 23.9667 82.5096 24.3467 82.163 24.68C81.8296 25 81.3696 25.26 80.783 25.46C80.2096 25.66 79.4763 25.76 78.583 25.76ZM81.943 6.5C82.503 6.5 82.943 6.64 83.263 6.92C83.5963 7.18667 83.763 7.56 83.763 8.04C83.763 8.52 83.5963 8.9 83.263 9.18C82.943 9.44667 82.503 9.58 81.943 9.58C81.383 9.58 80.9363 9.44667 80.603 9.18C80.283 8.9 80.123 8.52 80.123 8.04C80.123 7.56 80.283 7.18667 80.603 6.92C80.9363 6.64 81.383 6.5 81.943 6.5ZM88.2205 22.14C87.6205 22.14 87.1205 22.0267 86.7205 21.8C86.3205 21.5733 86.0271 21.2733 85.8405 20.9C85.6538 20.5133 85.5605 20.0933 85.5605 19.64C85.5605 19.0667 85.6871 18.6 85.9405 18.24C86.2071 17.88 86.5471 17.5867 86.9605 17.36C87.3738 17.1333 87.8071 16.9467 88.2605 16.8C88.7271 16.6533 89.1671 16.5133 89.5805 16.38C90.0071 16.2333 90.3471 16.0667 90.6005 15.88C90.8671 15.68 91.0005 15.4267 91.0005 15.12V13.56C91.0005 13.2133 90.9405 12.9067 90.8205 12.64C90.7138 12.36 90.5405 12.1467 90.3005 12C90.0738 11.8533 89.7738 11.78 89.4005 11.78C89.1338 11.78 88.8671 11.82 88.6005 11.9C88.3338 11.9667 88.1138 12.0867 87.9405 12.26C88.3138 12.3933 88.6005 12.6 88.8005 12.88C89.0138 13.1467 89.1205 13.4533 89.1205 13.8C89.1205 14.2533 88.9605 14.6133 88.6405 14.88C88.3338 15.1467 87.9671 15.28 87.5405 15.28C87.0605 15.28 86.6938 15.1333 86.4405 14.84C86.2005 14.5333 86.0805 14.1667 86.0805 13.74C86.0805 13.3533 86.1738 13.0333 86.3605 12.78C86.5605 12.5267 86.8338 12.2867 87.1805 12.06C87.5538 11.8467 88.0005 11.68 88.5205 11.56C89.0538 11.44 89.6271 11.38 90.2405 11.38C90.8538 11.38 91.4071 11.4467 91.9005 11.58C92.3938 11.7 92.8071 11.9267 93.1405 12.26C93.4471 12.5667 93.6471 12.9467 93.7405 13.4C93.8338 13.84 93.8805 14.4 93.8805 15.08V20.52C93.8805 20.8533 93.9138 21.0867 93.9805 21.22C94.0471 21.34 94.1605 21.4 94.3205 21.4C94.4405 21.4 94.5538 21.3667 94.6605 21.3C94.7805 21.2333 94.9071 21.1533 95.0405 21.06L95.2405 21.4C94.9605 21.64 94.6338 21.8267 94.2605 21.96C93.9005 22.08 93.4938 22.14 93.0405 22.14C92.5471 22.14 92.1538 22.0733 91.8605 21.94C91.5671 21.7933 91.3538 21.6 91.2205 21.36C91.1005 21.12 91.0405 20.84 91.0405 20.52C90.7205 21.0267 90.3338 21.4267 89.8805 21.72C89.4271 22 88.8738 22.14 88.2205 22.14ZM89.6405 20.86C89.9071 20.86 90.1471 20.8 90.3605 20.68C90.5871 20.5467 90.8005 20.3333 91.0005 20.04V15.94C90.8805 16.14 90.7138 16.32 90.5005 16.48C90.2871 16.64 90.0605 16.8067 89.8205 16.98C89.5805 17.14 89.3471 17.32 89.1205 17.52C88.9071 17.72 88.7338 17.9667 88.6005 18.26C88.4671 18.5533 88.4005 18.9067 88.4005 19.32C88.4005 19.84 88.5138 20.2267 88.7405 20.48C88.9671 20.7333 89.2671 20.86 89.6405 20.86ZM102.692 11.38C103.119 11.38 103.465 11.4733 103.732 11.66C103.999 11.8333 104.192 12.06 104.312 12.34C104.445 12.62 104.512 12.9133 104.512 13.22C104.512 13.7133 104.365 14.12 104.072 14.44C103.792 14.7467 103.419 14.9 102.952 14.9C102.485 14.9 102.119 14.7867 101.852 14.56C101.599 14.32 101.472 14.0067 101.472 13.62C101.472 13.2467 101.552 12.94 101.712 12.7C101.885 12.4467 102.099 12.2333 102.352 12.06C102.165 12.0067 101.979 12.0133 101.792 12.08C101.539 12.12 101.299 12.2267 101.072 12.4C100.845 12.56 100.652 12.7667 100.492 13.02C100.332 13.26 100.205 13.5267 100.112 13.82C100.019 14.1 99.972 14.3733 99.972 14.64V19.94C99.972 20.58 100.125 21.0133 100.432 21.24C100.752 21.4667 101.225 21.58 101.852 21.58V22C101.545 21.9867 101.099 21.9733 100.512 21.96C99.9254 21.9333 99.312 21.92 98.672 21.92C98.1387 21.92 97.5987 21.9333 97.052 21.96C96.5054 21.9733 96.092 21.9867 95.812 22V21.58C96.2787 21.58 96.6054 21.48 96.792 21.28C96.992 21.08 97.092 20.7 97.092 20.14V13.84C97.092 13.24 96.9987 12.8 96.812 12.52C96.6387 12.2267 96.3054 12.08 95.812 12.08V11.66C96.2387 11.7 96.652 11.72 97.052 11.72C97.612 11.72 98.132 11.7 98.612 11.66C99.1054 11.6067 99.5587 11.5333 99.972 11.44V13.3C100.132 12.94 100.345 12.6133 100.612 12.32C100.879 12.0267 101.185 11.8 101.532 11.64C101.879 11.4667 102.265 11.38 102.692 11.38ZM107.748 6.5C108.308 6.5 108.748 6.64 109.068 6.92C109.401 7.18667 109.568 7.56 109.568 8.04C109.568 8.52 109.401 8.9 109.068 9.18C108.748 9.44667 108.308 9.58 107.748 9.58C107.188 9.58 106.741 9.44667 106.408 9.18C106.088 8.9 105.928 8.52 105.928 8.04C105.928 7.56 106.088 7.18667 106.408 6.92C106.741 6.64 107.188 6.5 107.748 6.5ZM109.308 11.44V20.14C109.308 20.7 109.401 21.08 109.588 21.28C109.788 21.48 110.121 21.58 110.588 21.58V22C110.348 21.9867 109.975 21.9733 109.468 21.96C108.961 21.9333 108.448 21.92 107.928 21.92C107.408 21.92 106.881 21.9333 106.348 21.96C105.815 21.9733 105.415 21.9867 105.148 22V21.58C105.615 21.58 105.941 21.48 106.128 21.28C106.328 21.08 106.428 20.7 106.428 20.14V13.84C106.428 13.24 106.335 12.8 106.148 12.52C105.975 12.2267 105.641 12.08 105.148 12.08V11.66C105.575 11.7 105.988 11.72 106.388 11.72C106.948 11.72 107.468 11.7 107.948 11.66C108.441 11.6067 108.895 11.5333 109.308 11.44Z" fill="#323334"/>
</svg>
